<svg width="38" height="39" viewBox="0 0 38 39" fill="none" xmlns="http://www.w3.org/2000/svg">
<path fill-rule="evenodd" clip-rule="evenodd" d="M20.817 8.29348V4.92911C20.817 4.68702 21.0124 4.49161 21.2545 4.49161H31.4563C31.6984 4.49161 31.8938 4.68775 31.8938 4.92911V8.29348C31.8938 8.53484 31.6984 8.73098 31.4563 8.73098H21.2545C21.0124 8.73025 20.817 8.53484 20.817 8.29348ZM11.9927 29.1783L15.7216 35.7962L17.1493 33.2427C17.2295 33.0997 17.3834 33.013 17.5467 33.0195L20.4699 33.1209L17.4293 27.7236L16.1445 27.8454C16.0271 27.8563 15.9396 27.919 15.8922 28.0269L15.1193 29.7762C15.0216 29.9979 14.84 30.1605 14.6089 30.2341C14.5243 30.2611 14.4383 30.2742 14.353 30.2742C14.2057 30.2742 14.0598 30.2341 13.9279 30.1554L12.2996 29.1827C12.1997 29.1236 12.0933 29.1221 11.9927 29.1783ZM11.2365 29.6187L10.3484 30.1357C10.1391 30.2574 9.8963 30.283 9.66661 30.2064C9.43619 30.1306 9.25682 29.9658 9.1613 29.7427L8.40807 27.9839C8.36213 27.8753 8.27536 27.8118 8.15796 27.7994L6.96286 27.6725L3.89307 33.1223L6.81702 33.021C6.98036 33.0137 7.13348 33.1012 7.21369 33.2441L8.6414 35.7977L11.6791 30.4055L11.2365 29.6187ZM12.1815 26.037C14.1371 26.037 15.7289 24.446 15.7289 22.4896C15.7289 20.534 14.1371 18.9422 12.1815 18.9422C10.2259 18.9422 8.63411 20.5333 8.63411 22.4896C8.63411 24.4453 10.2259 26.037 12.1815 26.037ZM11.8016 24.0573C11.7199 24.1412 11.6076 24.1879 11.4903 24.1886H11.4895C11.3729 24.1886 11.2606 24.1412 11.1782 24.0581L10.0859 22.9497C9.91671 22.7777 9.91817 22.5006 10.0903 22.3314C10.2631 22.1615 10.5394 22.1637 10.7093 22.3358L11.4888 23.1269L13.653 20.9219C13.8221 20.7498 14.0992 20.7469 14.272 20.9161C14.4441 21.0853 14.447 21.3623 14.2779 21.5344L11.8016 24.0573ZM17.9062 26.8005L16.0621 26.9747C15.6297 27.0156 15.2673 27.2766 15.0916 27.674L14.3369 29.3817L12.7481 28.4323C12.5592 28.3193 12.3507 28.2624 12.1421 28.2624C11.938 28.2624 11.7338 28.3171 11.5471 28.425L9.94734 29.3562L9.21234 27.6397C9.04171 27.2409 8.68223 26.9755 8.25057 26.9295L6.40869 26.7341L6.81702 24.9003C6.91036 24.481 6.77619 24.0573 6.45755 23.7686L5.07359 22.5115L6.47213 21.2712C6.79369 20.9854 6.93296 20.5639 6.844 20.1432L6.45682 18.3049L8.30088 18.1307C8.73327 18.0898 9.09567 17.8288 9.2714 17.4314L10.0261 15.7237L11.6149 16.6731C11.9897 16.8969 12.4382 16.8998 12.8159 16.6804L14.4157 15.7492L15.1507 17.4657C15.3213 17.8645 15.6808 18.1299 16.1124 18.1759L17.9543 18.3713L17.5467 20.2052C17.4527 20.6252 17.5875 21.0481 17.9055 21.3368L19.2894 22.5939L17.8909 23.8342C17.5693 24.12 17.4308 24.5415 17.519 24.9622L17.9062 26.8005ZM16.6039 22.4896C16.6039 24.928 14.6198 26.912 12.1815 26.912C9.74317 26.912 7.75911 24.928 7.75911 22.4896C7.75911 20.0513 9.74317 18.0672 12.1815 18.0672C14.6198 18.0672 16.6039 20.0513 16.6039 22.4896ZM32.2394 25.5025L30.8044 26.9303C30.722 27.0127 30.6105 27.0579 30.496 27.0579C30.4712 27.0579 30.4471 27.0557 30.4223 27.0513C30.2831 27.0272 30.1635 26.9375 30.1022 26.8099L29.7683 26.1187C29.6633 25.9014 29.7544 25.6396 29.9724 25.5346C30.1897 25.4296 30.4515 25.5215 30.5565 25.7388L30.6229 25.8766L31.6225 24.8828C31.7932 24.7121 32.0703 24.7129 32.2409 24.8842C32.4115 25.0548 32.4108 25.3319 32.2394 25.5025ZM32.4392 24.3534H29.6545V27.4589H32.4392V24.3534ZM32.2394 18.7898L30.8044 20.2175C30.722 20.2999 30.6105 20.3444 30.496 20.3444C30.4712 20.3444 30.4471 20.343 30.4223 20.3379C30.2831 20.3145 30.1635 20.2241 30.1022 20.0972L29.7683 19.406C29.6633 19.1887 29.7544 18.9269 29.9724 18.8219C30.1897 18.7169 30.4515 18.8081 30.5565 19.0261L30.6229 19.1639L31.6225 18.1693C31.7939 17.9987 32.0703 18.0002 32.2409 18.1708C32.4115 18.3429 32.4108 18.6199 32.2394 18.7898ZM32.4392 17.6414H29.6545V20.7469H32.4392V17.6414ZM32.4392 10.9294H29.6545V14.0342H32.4392V10.9294ZM30.6229 12.4519L31.6225 11.4581C31.7939 11.2874 32.0703 11.2882 32.2409 11.4595C32.4115 11.6309 32.4108 11.908 32.2394 12.0786L30.8044 13.5056C30.722 13.588 30.6105 13.6332 30.496 13.6332C30.4712 13.6332 30.4471 13.631 30.4223 13.6266C30.2831 13.6025 30.1635 13.5129 30.1022 13.3853L29.7683 12.694C29.6633 12.4767 29.7544 12.2149 29.9724 12.1099C30.1897 12.0049 30.4515 12.0961 30.5565 12.3134L30.6229 12.4519ZM21.692 5.36661V7.85525H31.0188V5.36661H21.692ZM17.6904 7.9289V3.47661L13.2381 7.9289H17.6904ZM34.4291 29.9672V2.85754H18.5654V8.3664C18.5654 8.60775 18.3692 8.8039 18.1279 8.8039H12.619V15.7813L14.0146 14.969C14.2246 14.8472 14.4667 14.8217 14.6971 14.8983C14.9268 14.9748 15.1069 15.1389 15.2017 15.362L15.9549 17.1208C16.0016 17.2294 16.0877 17.2929 16.205 17.3053L18.0921 17.5058C18.3313 17.5313 18.5413 17.6531 18.6813 17.8485C18.822 18.0439 18.8709 18.2816 18.8184 18.5171L18.4006 20.3947C18.375 20.5099 18.4064 20.6091 18.4939 20.6886L19.9107 21.9756C20.0886 22.1367 20.1856 22.3584 20.1841 22.5983C20.1826 22.8382 20.0835 23.0584 19.9034 23.2173L18.472 24.4883C18.3831 24.567 18.351 24.6655 18.375 24.7814L18.7717 26.6634C18.8213 26.8989 18.7695 27.1359 18.6273 27.3298C18.5515 27.4327 18.456 27.5136 18.3481 27.5719L19.6978 29.9672H34.4291ZM14.1714 10.5678H27.3686C27.6099 10.5678 27.8061 10.7639 27.8061 11.0053C27.8061 11.2466 27.6099 11.4428 27.3686 11.4428H14.1714C13.93 11.4428 13.7339 11.2466 13.7339 11.0053C13.7339 10.7646 13.93 10.5678 14.1714 10.5678ZM14.1714 13.9124H27.3686C27.6099 13.9124 27.8061 14.1086 27.8061 14.3499C27.8061 14.592 27.6099 14.7874 27.3686 14.7874H14.1714C13.93 14.7874 13.7339 14.5913 13.7339 14.3499C13.7339 14.1086 13.93 13.9124 14.1714 13.9124ZM20.1761 17.2805H27.3686C27.6099 17.2805 27.8061 17.4766 27.8061 17.718C27.8061 17.96 27.6099 18.1555 27.3686 18.1555H20.1761C19.934 18.1555 19.7386 17.9593 19.7386 17.718C19.7386 17.4766 19.934 17.2805 20.1761 17.2805ZM21.4492 20.6244H27.3686C27.6099 20.6244 27.8061 20.8206 27.8061 21.0619C27.8061 21.3033 27.6099 21.4994 27.3686 21.4994H21.4492C21.2079 21.4994 21.0117 21.3033 21.0117 21.0619C21.0117 20.8206 21.2079 20.6244 21.4492 20.6244ZM21.4492 23.9924H27.3686C27.6099 23.9924 27.8061 24.1886 27.8061 24.4299C27.8061 24.6713 27.6099 24.8674 27.3686 24.8674H21.4492C21.2079 24.8674 21.0117 24.6713 21.0117 24.4299C21.0117 24.1886 21.2079 23.9924 21.4492 23.9924ZM27.3686 27.3371C27.6099 27.3371 27.8061 27.5333 27.8061 27.7746C27.8061 28.0167 27.6099 28.2121 27.3686 28.2121H20.1761C19.934 28.2121 19.7386 28.016 19.7386 27.7746C19.7386 27.5333 19.934 27.3371 20.1761 27.3371H27.3686ZM28.7795 27.8957C28.7795 28.1378 28.9749 28.3332 29.217 28.3332H32.8767C33.1181 28.3332 33.3142 28.137 33.3142 27.8957V23.9159C33.3142 23.6738 33.1181 23.4784 32.8767 23.4784H29.217C28.9749 23.4784 28.7795 23.6745 28.7795 23.9159V27.8957ZM28.7795 21.1837C28.7795 21.4258 28.9749 21.6212 29.217 21.6212H32.8767C33.1181 21.6212 33.3142 21.4258 33.3142 21.1837V17.2032C33.3142 16.9618 33.1181 16.7657 32.8767 16.7657H29.217C28.9749 16.7657 28.7795 16.9618 28.7795 17.2032V21.1837ZM28.7795 10.4919C28.7795 10.2498 28.9749 10.0544 29.217 10.0544H32.8767C33.1181 10.0544 33.3142 10.2506 33.3142 10.4919V14.4724C33.3142 14.7138 33.1181 14.9099 32.8767 14.9099H29.217C28.9749 14.9099 28.7795 14.7138 28.7795 14.4724V10.4919Z" fill="#81BA45"/>
</svg>
