<svg width="38" height="38" viewBox="0 0 38 38" fill="none" xmlns="http://www.w3.org/2000/svg">
<g clip-path="url(#clip0_18_1602)">
<path d="M15.9232 29.7166L16.6268 29.4251L14.4291 37.6303L12.1778 33.7314C12.0257 33.4674 11.6884 33.3776 11.4245 33.5296L7.52323 35.7808L9.80756 27.2604C10.2567 28.2887 11.0573 29.1303 12.0722 29.6188C12.7104 29.9261 13.4047 30.0806 14.1021 30.0806C14.7199 30.0806 15.3392 29.9593 15.9232 29.7166ZM25.9289 29.6189C24.7265 30.198 23.3222 30.2335 22.078 29.7166L21.6004 29.5188L23.5728 36.8785L25.8256 32.9788C25.9785 32.7148 26.3158 32.6242 26.5797 32.7771L30.4786 35.0275L28.3149 26.9563C27.898 28.1225 27.0423 29.0831 25.9289 29.6189ZM33.4951 18.5399C33.2649 19.5493 32.633 20.3846 31.715 20.8904L30.1068 21.7777C28.972 22.4033 28.214 23.3521 27.8555 24.5987L27.8168 24.7318C27.8105 24.75 27.8058 24.7681 27.8011 24.787L27.348 26.3653C27.0627 27.3582 26.3709 28.1816 25.4505 28.6244C24.5168 29.0736 23.4695 29.0996 22.501 28.6977L20.8061 27.9941C19.6367 27.5079 18.4508 27.4985 17.2806 27.961C17.2586 27.968 17.2373 27.9759 17.216 27.9861C17.209 27.9885 17.2019 27.9909 17.1956 27.994L15.4998 28.6976C14.5314 29.0995 13.4842 29.0743 12.5505 28.6244C11.6309 28.1815 10.939 27.3581 10.653 26.366L10.3063 25.1548C10.3008 25.1336 10.2953 25.1131 10.2882 25.0918L10.1463 24.5994C9.79014 23.3544 9.0337 22.4057 7.89664 21.7776L6.28839 20.8904C5.38298 20.3916 4.73373 19.5335 4.50674 18.5375C4.27669 17.5273 4.48392 16.5013 5.09146 15.6472L6.15444 14.1508C6.90533 13.0949 7.17644 11.9097 6.959 10.6285L6.64852 8.81931C6.47199 7.78623 6.73121 6.77057 7.3774 5.96047C8.02278 5.15044 8.95495 4.6721 10.0014 4.61384L11.8357 4.51293C13.132 4.44045 14.2265 3.91326 15.0894 2.94726L16.3107 1.5754C16.9947 0.809561 17.975 0.369873 19.001 0.369873C20.0269 0.369873 21.0072 0.809561 21.6904 1.57548L22.9125 2.94733C23.7753 3.9134 24.8691 4.44052 26.1661 4.5138L27.9997 4.61392C29.0461 4.67218 29.9783 5.15051 30.6245 5.96054C31.2706 6.77057 31.5291 7.7863 31.3533 8.81938L31.0421 10.6294C30.8254 11.9099 31.0957 13.0942 31.8466 14.1501L32.9104 15.6473C33.5093 16.4896 33.7228 17.5439 33.4951 18.5399ZM32.1027 16.5865L31.0019 15.0389C29.9893 13.615 29.6095 11.9516 29.9027 10.2299L30.2249 8.35687C30.3289 7.74226 30.1705 7.11736 29.7899 6.64144C29.4109 6.16631 28.8373 5.87392 28.2171 5.84008L26.3205 5.7345C24.5736 5.63839 23.0362 4.89844 21.8755 3.59593L20.6108 2.17748C20.2026 1.71883 19.6164 1.45568 19.0033 1.45487C19.0025 1.45487 19.0025 1.45487 19.0018 1.45487C18.388 1.45487 17.8008 1.71803 17.3903 2.17748L16.1264 3.59585C14.9649 4.89836 13.4275 5.63825 11.6806 5.73443L9.787 5.84001C9.16451 5.87384 8.59007 6.16704 8.21025 6.64297C7.8305 7.1189 7.67366 7.74459 7.77924 8.3576L8.09832 10.2291C8.39225 11.9517 8.01243 13.615 6.9991 15.039L5.90076 16.5873C5.5399 17.0947 5.41061 17.7275 5.54697 18.3224C5.68325 18.9158 6.07255 19.428 6.61542 19.7258L8.27959 20.6438C9.80909 21.4877 10.8729 22.8218 11.3551 24.5009L11.8776 26.3267C12.0502 26.9248 12.4638 27.4188 13.0122 27.6836C13.5615 27.9475 14.2052 27.9626 14.7798 27.7246L16.533 26.9957C18.1476 26.3243 19.8535 26.3243 21.4681 26.9965L23.2221 27.7246C23.4932 27.8364 23.7793 27.8924 24.0645 27.8924C24.3829 27.8924 24.6988 27.8231 24.9888 27.6836C25.538 27.4188 25.9509 26.9248 26.1235 26.3259L26.6459 24.5017C27.1282 22.8225 28.1927 21.4884 29.7246 20.6437L31.3849 19.7266C31.9287 19.4279 32.3179 18.9165 32.4542 18.3239C32.5913 17.7291 32.4636 17.0963 32.1027 16.5865ZM31.2028 17.2255C31.384 17.4808 31.4463 17.7834 31.3794 18.0765C31.3124 18.3673 31.1256 18.61 30.8522 18.7597L29.1911 19.6777C27.3977 20.6674 26.1512 22.23 25.5853 24.1975L25.0629 26.0209C24.9762 26.3219 24.7801 26.5591 24.5098 26.6891C24.2403 26.8192 23.933 26.8247 23.6453 26.7057L21.8921 25.9776C20.9457 25.5837 19.9734 25.3874 19.001 25.3874C18.0279 25.3874 17.0555 25.5837 16.11 25.9768L14.3568 26.705C14.0683 26.8248 13.761 26.8192 13.4915 26.6892C13.2212 26.5592 13.0251 26.322 12.9384 26.0218L12.4159 24.1969C11.8502 22.2293 10.6043 20.6667 8.81254 19.6778L7.14829 18.7598C6.87566 18.6101 6.68972 18.3673 6.62271 18.0766C6.5557 17.7835 6.6187 17.4817 6.80077 17.2264L7.89919 15.6788C9.08518 14.0098 9.53033 12.0612 9.18595 10.0439L8.86686 8.17167C8.81407 7.86279 8.88735 7.56412 9.07336 7.33094C9.2601 7.09687 9.53427 6.95899 9.84796 6.94163L11.7415 6.83685C13.7879 6.7234 15.5892 5.85663 16.95 4.32954L18.214 2.91197C18.4181 2.68425 18.6978 2.55818 19.002 2.55818H19.0027C19.3061 2.55898 19.585 2.68425 19.7875 2.91117L21.0515 4.32954C22.4123 5.85663 24.2136 6.7234 26.26 6.83685L28.1567 6.94163C28.468 6.95899 28.7422 7.09687 28.9281 7.33006C29.1157 7.56412 29.1898 7.86352 29.1378 8.17086L28.8155 10.0439C28.4711 12.0611 28.9163 14.0097 30.103 15.6787L31.2028 17.2255ZM17.5652 10.4434L19.0018 11.2731L22.9779 8.97696L21.5415 8.14804L17.5652 10.4434ZM15.024 8.97696L16.4613 9.80668L20.4382 7.51046L19.0018 6.68154L15.024 8.97696ZM15.5772 18.9119C15.5016 18.6786 15.2833 18.5234 15.0366 18.5304L14.2361 18.5541L14.01 17.7849C13.9406 17.5501 13.7255 17.3894 13.4804 17.3894C13.4804 17.3894 13.4804 17.3894 13.4796 17.3894C13.2346 17.3894 13.0195 17.5509 12.9509 17.7857L12.7263 18.554L11.9265 18.5304C11.6791 18.524 11.4608 18.6784 11.3852 18.9118C11.3096 19.1442 11.3963 19.3995 11.5988 19.5374L12.2599 19.9897L11.9912 20.7446C11.9092 20.9747 11.9889 21.2324 12.1866 21.3758C12.3852 21.52 12.6539 21.5153 12.8478 21.3664L13.4805 20.8778L14.1156 21.3664C14.2141 21.4428 14.3331 21.4814 14.4521 21.4814C14.5656 21.4814 14.6799 21.446 14.776 21.3759C14.9745 21.2317 15.0541 20.9748 14.9722 20.7447L14.7035 19.9898L15.3645 19.5375C15.5662 19.3996 15.6529 19.1443 15.5772 18.9119ZM18.4502 16.8221V12.229L17.0121 11.3984V13.0942C17.0121 13.3983 16.7646 13.6458 16.4597 13.6458C16.1555 13.6458 15.9081 13.3983 15.9081 13.0942V10.7617L14.4716 9.93275V14.5266L18.4502 16.8221ZM21.097 21.6004C21.0213 21.3679 20.8038 21.2127 20.5557 21.2198L19.7559 21.2434L19.5313 20.4752C19.4628 20.2404 19.2476 20.0788 19.0026 20.078H19.0018C18.7575 20.078 18.5416 20.2395 18.4723 20.4744L18.2461 21.2435L17.4455 21.2199C17.1973 21.2136 16.9806 21.3681 16.9049 21.6004C16.8292 21.8337 16.9159 22.0882 17.1177 22.2269L17.7788 22.6792L17.5101 23.4341C17.4282 23.6643 17.5078 23.9212 17.7055 24.0653C17.8024 24.1354 17.9167 24.1709 18.0302 24.1709C18.1492 24.1709 18.2674 24.1323 18.3667 24.0558L19.0018 23.5673L19.6345 24.0558C19.8283 24.2047 20.0971 24.2087 20.2956 24.0653C20.4934 23.9219 20.573 23.6642 20.491 23.4341L20.2223 22.6792L20.8834 22.2269C21.0859 22.0882 21.1726 21.8336 21.097 21.6004ZM23.5295 14.5267V9.93282L19.5534 12.229V16.8221L23.5295 14.5267ZM26.616 18.9119C26.5403 18.6786 26.3205 18.5226 26.0754 18.5304L25.2765 18.5541L25.0503 17.7849C24.9817 17.5501 24.7658 17.3894 24.5216 17.3894C24.2765 17.3894 24.0606 17.5501 23.992 17.7849L23.7659 18.5541L22.9645 18.5304C22.7186 18.5241 22.4996 18.6785 22.4239 18.9119C22.3482 19.1443 22.4349 19.3996 22.6367 19.5375L23.2985 19.9898L23.0298 20.7447C22.9479 20.9747 23.0275 21.2316 23.2253 21.3759C23.423 21.5193 23.6925 21.5161 23.8864 21.3664L24.5215 20.8779L25.1558 21.3664C25.2551 21.4429 25.374 21.4815 25.493 21.4815C25.6065 21.4815 25.7208 21.4461 25.8177 21.3759C26.0154 21.2318 26.095 20.9741 26.0123 20.744L25.742 19.9899L26.4031 19.5376C26.605 19.3996 26.6916 19.1443 26.616 18.9119Z" fill="#81BA45"/>
</g>
<defs>
<clipPath id="clip0_18_1602">
<rect width="37.3333" height="37.3333" fill="white" transform="translate(0.333252 0.333374)"/>
</clipPath>
</defs>
</svg>
