<svg width="38" height="39" viewBox="0 0 38 39" fill="none" xmlns="http://www.w3.org/2000/svg">
<g clip-path="url(#clip0_18_1569)">
<path d="M27.0499 7.42505C26.2538 7.42505 25.4756 7.66111 24.8137 8.10338C24.1518 8.54566 23.6359 9.17428 23.3313 9.90975C23.0266 10.6452 22.9469 11.4545 23.1022 12.2353C23.2575 13.0161 23.6409 13.7332 24.2038 14.2962C24.7667 14.8591 25.4839 15.2424 26.2647 15.3977C27.0454 15.553 27.8547 15.4733 28.5902 15.1687C29.3257 14.864 29.9543 14.3481 30.3966 13.6862C30.8388 13.0243 31.0749 12.2461 31.0749 11.45C31.0728 10.3832 30.648 9.36067 29.8937 8.60629C29.1393 7.85192 28.1167 7.42718 27.0499 7.42505ZM29.6516 10.9484L27.3766 13.2234C27.2688 13.334 27.14 13.422 26.9978 13.4821C26.8555 13.5422 26.7027 13.5732 26.5482 13.5734C26.3955 13.5732 26.2445 13.542 26.1041 13.4819C25.9638 13.4217 25.837 13.3338 25.7316 13.2234L24.8216 12.3134C24.7114 12.2069 24.6235 12.0796 24.5632 11.9388C24.5028 11.798 24.4712 11.6465 24.4701 11.4933C24.469 11.3401 24.4985 11.1883 24.5569 11.0466C24.6152 10.905 24.7012 10.7764 24.8099 10.6684C25.0302 10.4498 25.3279 10.3271 25.6382 10.3271C25.9486 10.3271 26.2463 10.4498 26.4666 10.6684L26.5482 10.75L28.0066 9.30338C28.2247 9.08524 28.5206 8.96269 28.8291 8.96269C29.1376 8.96269 29.4334 9.08524 29.6516 9.30338C29.8697 9.52152 29.9923 9.81739 29.9923 10.1259C29.9923 10.4344 29.8697 10.7302 29.6516 10.9484Z" fill="#81BA45"/>
<path d="M36.4767 8.73171C36.2416 8.44327 36.0382 8.13035 35.87 7.79837C35.745 7.42386 35.6628 7.03639 35.625 6.64337C35.5764 5.65078 35.1988 4.70261 34.5517 3.94837C33.7974 3.30128 32.8493 2.92366 31.8567 2.87504C31.4637 2.83726 31.0762 2.75507 30.7017 2.63004C30.3697 2.4619 30.0568 2.2585 29.7683 2.02337C29.0201 1.33492 28.0634 0.916091 27.05 0.833374C26.036 0.913718 25.0786 1.33287 24.3317 2.02337C24.0414 2.25594 23.7287 2.45916 23.3984 2.63004C23.0235 2.75385 22.6362 2.83601 22.2434 2.87504C21.2468 2.92139 20.2942 3.29913 19.5367 3.94837C18.8975 4.70638 18.5246 5.65309 18.475 6.64337C18.4316 7.0355 18.3495 7.42238 18.23 7.79837C18.0573 8.13035 17.85 8.44319 17.6117 8.73171C16.9314 9.48403 16.5173 10.4392 16.4333 11.45C16.5149 12.4615 16.9293 13.4174 17.6117 14.1684C17.8474 14.4588 18.0545 14.7714 18.23 15.1017C18.3483 15.478 18.4303 15.8648 18.475 16.2567C18.5223 17.251 18.8954 18.2021 19.5367 18.9634C20.298 19.6047 21.2491 19.9777 22.2434 20.025C22.6353 20.0697 23.022 20.1518 23.3984 20.27C23.7287 20.4455 24.0413 20.6526 24.3317 20.8884C25.0827 21.5708 26.0386 21.9851 27.05 22.0667C28.0609 21.9828 29.016 21.5687 29.7683 20.8884C30.0569 20.65 30.3697 20.4428 30.7017 20.27C31.0777 20.1506 31.4646 20.0685 31.8567 20.025C32.847 19.9755 33.7937 19.6025 34.5517 18.9634C35.2009 18.2059 35.5787 17.2533 35.625 16.2567C35.6641 15.8639 35.7462 15.4766 35.87 15.1017C36.0409 14.7713 36.2441 14.4587 36.4767 14.1684C37.1672 13.4215 37.5863 12.464 37.6667 11.45C37.584 10.4367 37.1651 9.47992 36.4767 8.73171ZM27.05 17.8084C25.7925 17.8084 24.5631 17.4355 23.5175 16.7368C22.4719 16.0381 21.6569 15.0451 21.1757 13.8833C20.6944 12.7214 20.5685 11.443 20.8139 10.2096C21.0592 8.9762 21.6648 7.84325 22.554 6.95402C23.4432 6.06479 24.5762 5.45922 25.8096 5.21388C27.043 4.96854 28.3214 5.09446 29.4832 5.57571C30.6451 6.05695 31.6381 6.87192 32.3368 7.91754C33.0354 8.96316 33.4084 10.1925 33.4084 11.45C33.4044 13.1352 32.7332 14.7501 31.5417 15.9417C30.3501 17.1333 28.7351 17.8044 27.05 17.8084Z" fill="#81BA45"/>
<path d="M23.6665 30H27.1665V32.3333H23.6665V30Z" fill="#81BA45"/>
<path d="M32.2066 22.335C31.9966 22.3583 31.6699 22.4167 31.5533 22.44C31.5066 22.4867 31.3433 22.615 31.1683 22.755C30.0185 23.7491 28.5682 24.3284 27.0499 24.4C25.5316 24.3284 24.0814 23.7491 22.9316 22.755C22.7743 22.6301 22.6108 22.5132 22.4416 22.405C22.4299 22.4167 22.0916 22.3583 21.8933 22.335C20.4031 22.2261 18.9932 21.6178 17.8916 20.6083C16.8822 19.5067 16.2738 18.0968 16.1649 16.6067C16.1416 16.4083 16.0833 16.07 16.0599 15.965C16.0133 15.9183 15.8849 15.755 15.7566 15.58C14.7558 14.4287 14.1722 12.9737 14.0999 11.45C14.1715 9.93172 14.7508 8.48145 15.7449 7.33167C15.8752 7.17852 15.9923 7.0146 16.0949 6.84167C16.0833 6.83 16.1416 6.50333 16.1649 6.305C16.1999 6.06 16.2466 5.79167 16.3049 5.5H2.66659C2.04831 5.50182 1.45587 5.74823 1.01868 6.18542C0.581484 6.62262 0.335068 7.21505 0.333252 7.83333L0.333252 35.8333C0.335068 36.4516 0.581484 37.0441 1.01868 37.4812C1.45587 37.9184 2.04831 38.1649 2.66659 38.1667H30.6666C31.2849 38.1649 31.8773 37.9184 32.3145 37.4812C32.7517 37.0441 32.9981 36.4516 32.9999 35.8333V22.2067C32.7199 22.2533 32.4516 22.3 32.2066 22.335ZM7.33325 34.6667H4.99992C4.6905 34.6667 4.39375 34.5438 4.17496 34.325C3.95617 34.1062 3.83325 33.8094 3.83325 33.5C3.83325 33.1906 3.95617 32.8938 4.17496 32.675C4.39375 32.4563 4.6905 32.3333 4.99992 32.3333H7.33325C7.64267 32.3333 7.93942 32.4563 8.15821 32.675C8.377 32.8938 8.49992 33.1906 8.49992 33.5C8.49992 33.8094 8.377 34.1062 8.15821 34.325C7.93942 34.5438 7.64267 34.6667 7.33325 34.6667ZM9.66659 30H4.99992C4.6905 30 4.39375 29.8771 4.17496 29.6583C3.95617 29.4395 3.83325 29.1428 3.83325 28.8333C3.83325 28.5239 3.95617 28.2272 4.17496 28.0084C4.39375 27.7896 4.6905 27.6667 4.99992 27.6667H9.66659C9.97601 27.6667 10.2728 27.7896 10.4915 28.0084C10.7103 28.2272 10.8333 28.5239 10.8333 28.8333C10.8333 29.1428 10.7103 29.4395 10.4915 29.6583C10.2728 29.8771 9.97601 30 9.66659 30ZM29.4999 33.5C29.4999 33.8094 29.377 34.1062 29.1582 34.325C28.9394 34.5438 28.6427 34.6667 28.3333 34.6667H22.4999C22.1905 34.6667 21.8938 34.5438 21.675 34.325C21.4562 34.1062 21.3333 33.8094 21.3333 33.5V28.8333C21.3333 28.5239 21.4562 28.2272 21.675 28.0084C21.8938 27.7896 22.1905 27.6667 22.4999 27.6667H28.3333C28.6427 27.6667 28.9394 27.7896 29.1582 28.0084C29.377 28.2272 29.4999 28.5239 29.4999 28.8333V33.5Z" fill="#81BA45"/>
</g>
<defs>
<clipPath id="clip0_18_1569">
<rect width="37.3333" height="37.3333" fill="white" transform="translate(0.333252 0.833374)"/>
</clipPath>
</defs>
</svg>
