<svg width="38" height="39" viewBox="0 0 38 39" fill="none" xmlns="http://www.w3.org/2000/svg">
<g id="Capa_1" clip-path="url(#clip0_18_1587)">
<g id="Group">
<path id="Vector" d="M19 38.1667C17.1907 38.1667 15.7188 36.6948 15.7188 34.8855C15.7188 33.0762 17.1907 31.6042 19 31.6042C20.8093 31.6042 22.2813 33.0762 22.2813 34.8855C22.2813 36.6948 20.8093 38.1667 19 38.1667Z" fill="#81BA45"/>
<path id="Vector_2" d="M26.4158 23.3266C27.0515 22.1221 27.3853 20.7841 27.3853 19.4272C27.3853 14.8034 23.6236 11.0417 18.9999 11.0417C14.3762 11.0417 10.6145 14.8034 10.6145 19.4272C10.6145 24.0509 14.3762 27.8126 18.9999 27.8126C20.3568 27.8126 21.6948 27.4787 22.8994 26.8431L25.9773 27.7665C26.0808 27.7976 26.1866 27.8127 26.2915 27.8127C26.5774 27.8127 26.8569 27.7004 27.065 27.4923C27.3495 27.2077 27.4549 26.79 27.3393 26.4046L26.4158 23.3266ZM21.3697 22.7084H16.6301C16.0261 22.7084 15.5364 22.2187 15.5364 21.6147C15.5364 21.0106 16.0261 20.5209 16.6301 20.5209H21.3697C21.9738 20.5209 22.4635 21.0106 22.4635 21.6147C22.4635 22.2187 21.9738 22.7084 21.3697 22.7084ZM21.3697 18.3334H16.6301C16.0261 18.3334 15.5364 17.8437 15.5364 17.2397C15.5364 16.6356 16.0261 16.1459 16.6301 16.1459H21.3697C21.9738 16.1459 22.4635 16.6356 22.4635 17.2397C22.4635 17.8437 21.9738 18.3334 21.3697 18.3334Z" fill="#81BA45"/>
<path id="Vector_3" d="M7.33333 31.4584H4.41667C2.20532 31.4584 0.40625 29.6593 0.40625 27.448V22.3438C0.40625 20.1324 2.20532 18.3334 4.41667 18.3334H7.33333C7.93738 18.3334 8.42708 18.8231 8.42708 19.4271V30.3646C8.42708 30.9687 7.93738 31.4584 7.33333 31.4584Z" fill="#81BA45"/>
<path id="Vector_4" d="M33.5834 31.4584H30.6667C30.0627 31.4584 29.573 30.9687 29.573 30.3646V19.4271C29.573 18.8231 30.0627 18.3334 30.6667 18.3334H33.5834C35.7948 18.3334 37.5938 20.1324 37.5938 22.3438V27.448C37.5938 29.6593 35.7948 31.4584 33.5834 31.4584Z" fill="#81BA45"/>
<path id="Vector_5" d="M34.4787 16.2115C34.1706 14.2873 33.5069 12.4321 32.5146 10.7485C31.7032 9.3721 30.6846 8.13076 29.5051 7.06494L28.3813 9.01145C30.3602 10.9347 31.7153 13.43 32.2426 16.1459H33.5833C33.8874 16.1459 34.1862 16.1689 34.4787 16.2115Z" fill="#81BA45"/>
<path id="Vector_6" d="M5.4854 10.7485C4.49307 12.432 3.82939 14.2873 3.52124 16.2115C3.81378 16.1689 4.11252 16.1459 4.41666 16.1459H5.75738C6.28464 13.43 7.63979 10.9346 9.61868 9.01145L8.49481 7.06494C7.31539 8.13076 6.29674 9.3721 5.4854 10.7485Z" fill="#81BA45"/>
<path id="Vector_7" d="M25.1909 9.06873C24.9998 9.06873 24.8105 9.01871 24.6424 8.92129C22.9207 7.92335 20.9696 7.39587 19 7.39587C17.0303 7.39587 15.0792 7.92335 13.3576 8.92129C13.1063 9.06691 12.8075 9.10665 12.5269 9.03176C12.2463 8.95687 12.0071 8.77342 11.8619 8.52193L9.67136 4.72785C9.36971 4.20533 9.54813 3.5372 10.0701 3.23467C12.7805 1.66375 15.8684 0.833374 19 0.833374C22.1315 0.833374 25.2194 1.66375 27.9298 3.23474C28.4518 3.53727 28.6301 4.20541 28.3285 4.72793L26.138 8.52193C25.9928 8.77342 25.7536 8.95687 25.473 9.03176C25.3802 9.05648 25.2853 9.06873 25.1909 9.06873Z" fill="#81BA45"/>
<path id="Vector_8" d="M32.8541 29.2709C32.25 29.2709 31.7603 29.7606 31.7603 30.3646V31.9688C31.7603 32.9739 30.9426 33.7917 29.9374 33.7917H24.3586C24.4307 34.1452 24.4687 34.511 24.4687 34.8855C24.4687 35.26 24.4307 35.6257 24.3586 35.9792H29.9374C32.1488 35.9792 33.9478 34.1801 33.9478 31.9688V30.3646C33.9478 29.7606 33.4581 29.2709 32.8541 29.2709Z" fill="#81BA45"/>
</g>
</g>
<defs>
<clipPath id="clip0_18_1587">
<rect width="37.3333" height="37.3333" fill="white" transform="translate(0.333252 0.833374)"/>
</clipPath>
</defs>
</svg>
