<svg width="1440" height="312" viewBox="0 0 1440 312" fill="none" xmlns="http://www.w3.org/2000/svg">
<g clip-path="url(#clip0_57_2167)">
<rect width="1440" height="312" fill="#012414"/>
<g opacity="0.02" clip-path="url(#clip1_57_2167)">
<path fill-rule="evenodd" clip-rule="evenodd" d="M1118.35 205.567C1145.25 239.842 1170.87 276.409 1197.84 297.768C1164.03 290.513 1136.63 301.886 1126.29 307.232C1054.49 286.567 1046.86 324.7 1046.86 324.7C1076.16 349.51 1113.71 320.262 1124.68 310.573C1132.05 306.364 1162.99 290.842 1201.57 300.837C1217.57 313.184 1233.38 323.863 1248.91 333.117C1257.97 338.488 1266.66 343.213 1275.21 347.542C1254.49 344.717 1238.41 350.242 1232.36 352.818C1161.32 329.685 1152.38 367.53 1152.38 367.53C1181.05 393.544 1219.97 364.962 1230.89 355.888C1232.44 355.103 1253.4 344.693 1281.47 350.848C1327.48 372.845 1369.75 382.744 1404.21 386.533C1417.64 388.015 1430.32 388.586 1442.25 388.603C1425.71 395.094 1408.48 404.786 1401.47 408.878C1327.98 411.959 1332.56 450.166 1332.56 450.166C1370.57 465.598 1398.33 419.46 1403.37 410.319C1411.6 405.529 1431.2 394.617 1448.54 388.604C1502.91 391.647 1545.62 399.16 1546.05 398.992L1552.23 378.912C1551.7 379.117 1488.82 391.475 1413.57 385.181C1410.43 383.601 1376.62 365.709 1337.55 313.76C1322.35 243.837 1286.06 254.369 1286.06 254.369C1276.38 297.127 1334.11 316.909 1338.26 318.285C1369.78 359.28 1397.59 378.37 1408.26 384.723C1406.98 384.598 1405.72 384.527 1404.42 384.375C1362.33 379.747 1308.49 365.948 1250.45 331.497C1247.46 326.873 1228.55 296.62 1231.86 279.168C1257.84 209.29 1220.51 198.781 1220.51 198.781C1192.27 227.404 1222.36 269.526 1229.71 278.932C1226.78 294.747 1240.22 319.075 1246.27 328.995C1207.23 303.747 1188.33 293.083 1120.21 205.116C1138.8 133.999 1097.79 137.574 1097.79 137.574C1069.09 172.847 1118.35 205.567 1118.35 205.567Z" fill="#F2EDE5"/>
</g>
<g opacity="0.02" clip-path="url(#clip2_57_2167)">
<path fill-rule="evenodd" clip-rule="evenodd" d="M172.346 231.567C199.25 265.842 224.871 302.409 251.841 323.768C218.027 316.513 190.631 327.886 180.29 333.232C108.486 312.567 100.858 350.7 100.858 350.7C130.163 375.51 167.708 346.262 178.678 336.573C186.05 332.364 216.993 316.842 255.568 326.837C271.57 339.184 287.381 349.863 302.91 359.117C311.971 364.488 320.658 369.213 329.213 373.542C308.493 370.717 292.413 376.242 286.364 378.818C215.319 355.685 206.381 393.53 206.381 393.53C235.047 419.544 273.969 390.962 284.893 381.888C286.441 381.103 307.401 370.693 335.465 376.848C381.477 398.845 423.753 408.744 458.209 412.533C471.639 414.015 484.324 414.586 496.251 414.603C479.714 421.094 462.476 430.786 455.473 434.878C381.983 437.959 386.555 476.166 386.555 476.166C424.568 491.598 452.329 445.46 457.365 436.319C465.598 431.529 485.204 420.617 502.544 414.604C556.911 417.647 599.623 425.16 600.05 424.992L606.229 404.912C605.699 405.117 542.815 417.475 467.574 411.181C464.426 409.601 430.616 391.709 391.553 339.76C376.347 269.837 340.059 280.369 340.059 280.369C330.378 323.127 388.11 342.909 392.257 344.285C423.785 385.28 451.585 404.37 462.262 410.723C460.977 410.598 459.722 410.527 458.422 410.375C416.328 405.747 362.486 391.948 304.446 357.497C301.46 352.873 282.547 322.62 285.862 305.168C311.836 235.29 274.507 224.781 274.507 224.781C246.273 253.404 276.356 295.526 283.714 304.932C280.782 320.747 294.22 345.075 300.266 354.995C261.227 329.747 242.333 319.083 174.213 231.116C192.799 159.999 151.788 163.574 151.788 163.574C123.094 198.847 172.346 231.567 172.346 231.567Z" fill="#F2EDE5"/>
</g>
<g clip-path="url(#clip3_57_2167)">
<path fill-rule="evenodd" clip-rule="evenodd" d="M25.5874 -1.93031H19.6362C15.5058 1.45143 20.1206 10.3395 16.7817 16.8096C27.2093 6.36102 25.5874 -1.93031 25.5874 -1.93031Z" fill="white"/>
<path fill-rule="evenodd" clip-rule="evenodd" d="M23.5591 -1.93039H29.9514C34.0818 1.45135 27.0623 6.85286 30.3969 13.3235C27.2699 9.70592 25.4707 7.69601 24.4629 5.45689" fill="white"/>
<path fill-rule="evenodd" clip-rule="evenodd" d="M21.7818 -1.93036H12.016C12.016 -1.93036 8.71601 5.65327 15.143 9.99292C16.4664 8.59222 17.3358 7.26948 17.9023 6.119" fill="white"/>
<path fill-rule="evenodd" clip-rule="evenodd" d="M43.5835 -1.93027H35.8418C31.7114 1.45146 37.4161 11.8079 34.0815 18.2822C44.5091 7.83158 43.5835 -1.93027 43.5835 -1.93027Z" fill="white"/>
<path fill-rule="evenodd" clip-rule="evenodd" d="M12.18 6.78532C11.2328 10.3024 10.2467 14.1679 11.8772 17.3284C1.44964 6.87982 6.73485 -1.93073 6.73485 -1.93073H12.0156" fill="white"/>
<path fill-rule="evenodd" clip-rule="evenodd" d="M7.83347 -1.93024H1.44117C-2.68923 1.45149 4.33029 7.56491 0.995701 14.0371C3.13226 11.568 4.64602 9.13371 5.71425 7.57698" fill="white"/>
<path fill-rule="evenodd" clip-rule="evenodd" d="M4.24822 -1.93039H-4.43642C-4.43642 -1.93039 -8.59273 -0.556357 -2.96163 11.4141C-2.77565 8.00975 -1.23163 5.63276 0.308038 3.12064" fill="white"/>
<path fill-rule="evenodd" clip-rule="evenodd" d="M64.2396 -1.93031H58.2884C54.158 1.45143 59.9449 10.3395 56.6104 16.8096C67.0423 6.36102 64.2396 -1.93031 64.2396 -1.93031Z" fill="white"/>
<path fill-rule="evenodd" clip-rule="evenodd" d="M62.2109 -1.93016H69.0315C74.4464 1.64435 64.4341 7.86004 67.7686 14.3328C64.6417 10.7152 62.6349 8.62549 63.5474 6.28976" fill="white"/>
<path fill-rule="evenodd" clip-rule="evenodd" d="M60.4384 -1.93021H50.6726C50.6726 -1.93021 47.7013 5.71484 54.1326 10.0503C58.8598 6.82034 57.3201 6.12098 57.3201 6.12098" fill="white"/>
<path fill-rule="evenodd" clip-rule="evenodd" d="M81.1677 -1.93027H74.4986C70.3682 1.45146 77.1498 12.4537 73.8109 18.928C84.2385 8.47523 81.1677 -1.93027 81.1677 -1.93027Z" fill="white"/>
<path fill-rule="evenodd" clip-rule="evenodd" d="M79.1392 -1.93031H86.4959C90.6263 1.45143 82.4391 7.97907 85.778 14.4534C83.5506 11.8755 82.1018 8.98812 81.0853 7.37637" fill="white"/>
<path fill-rule="evenodd" clip-rule="evenodd" d="M82.73 -1.93018H91.8428C91.8428 -1.93018 97.1798 0.752258 89.9397 11.6521C89.7537 8.24779 88.7461 5.63297 87.202 3.12085" fill="white"/>
<path fill-rule="evenodd" clip-rule="evenodd" d="M46.6195 15.8132C43.6698 12.8581 40.3612 2.11808 41.4165 -1.91759L42.9605 -1.92169L42.9562 -1.93195L46.6194 -1.92785L50.2827 -1.93195L50.2784 -1.92169L51.8224 -1.91759C52.882 2.12039 49.5647 12.8585 46.6195 15.8132Z" fill="white"/>
<path fill-rule="evenodd" clip-rule="evenodd" d="M25.562 -1.93036H36.435C36.435 -1.93036 38.6278 5.65327 32.2009 9.99292C30.8774 8.59222 30.0081 7.26948 29.4415 6.119" fill="white"/>
<path fill-rule="evenodd" clip-rule="evenodd" d="M64.314 -1.93031H75.187C75.187 -1.93031 76.9343 6.70332 70.5073 11.043C69.1839 9.64227 67.8344 8.19647 67.7523 6.11905" fill="white"/>
<path fill-rule="evenodd" clip-rule="evenodd" d="M741.378 -1.93031H735.427C731.296 1.45143 735.911 10.3395 732.572 16.8096C743 6.36102 741.378 -1.93031 741.378 -1.93031Z" fill="white"/>
<path fill-rule="evenodd" clip-rule="evenodd" d="M739.35 -1.93039H745.742C749.872 1.45135 742.853 6.85286 746.187 13.3235C743.06 9.70592 741.261 7.69601 740.253 5.45689" fill="white"/>
<path fill-rule="evenodd" clip-rule="evenodd" d="M737.572 -1.93036H727.807C727.807 -1.93036 724.507 5.65327 730.933 9.99292C732.257 8.59222 733.126 7.26948 733.693 6.119" fill="white"/>
<path fill-rule="evenodd" clip-rule="evenodd" d="M759.374 -1.93027H751.632C747.502 1.45146 753.207 11.8079 749.872 18.2822C760.3 7.83158 759.374 -1.93027 759.374 -1.93027Z" fill="white"/>
<path fill-rule="evenodd" clip-rule="evenodd" d="M727.971 6.78532C727.023 10.3024 726.037 14.1679 727.668 17.3284C717.24 6.87982 722.525 -1.93073 722.525 -1.93073H727.806" fill="white"/>
<path fill-rule="evenodd" clip-rule="evenodd" d="M723.624 -1.93024H717.232C713.101 1.45149 720.121 7.56491 716.786 14.0371C718.923 11.568 720.437 9.13371 721.505 7.57698" fill="white"/>
<path fill-rule="evenodd" clip-rule="evenodd" d="M720.039 -1.93039H711.354C711.354 -1.93039 707.198 -0.556357 712.829 11.4141C713.015 8.00975 714.559 5.63276 716.099 3.12064" fill="white"/>
<path fill-rule="evenodd" clip-rule="evenodd" d="M780.03 -1.93031H774.079C769.949 1.45143 775.735 10.3395 772.401 16.8096C782.833 6.36102 780.03 -1.93031 780.03 -1.93031Z" fill="white"/>
<path fill-rule="evenodd" clip-rule="evenodd" d="M778.001 -1.93016H784.822C790.237 1.64435 780.225 7.86004 783.559 14.3328C780.432 10.7152 778.425 8.62549 779.338 6.28976" fill="white"/>
<path fill-rule="evenodd" clip-rule="evenodd" d="M776.229 -1.93021H766.463C766.463 -1.93021 763.492 5.71484 769.923 10.0503C774.65 6.82034 773.111 6.12098 773.111 6.12098" fill="white"/>
<path fill-rule="evenodd" clip-rule="evenodd" d="M796.958 -1.93027H790.289C786.159 1.45146 792.94 12.4537 789.601 18.928C800.029 8.47523 796.958 -1.93027 796.958 -1.93027Z" fill="white"/>
<path fill-rule="evenodd" clip-rule="evenodd" d="M794.93 -1.93031H802.286C806.417 1.45143 798.23 7.97907 801.569 14.4534C799.341 11.8755 797.892 8.98812 796.876 7.37637" fill="white"/>
<path fill-rule="evenodd" clip-rule="evenodd" d="M798.521 -1.93018H807.633C807.633 -1.93018 812.97 0.752258 805.73 11.6521C805.544 8.24779 804.537 5.63297 802.992 3.12085" fill="white"/>
<path fill-rule="evenodd" clip-rule="evenodd" d="M762.41 15.8132C759.46 12.8581 756.152 2.11808 757.207 -1.91759L758.751 -1.92169L758.747 -1.93195L762.41 -1.92785L766.073 -1.93195L766.069 -1.92169L767.613 -1.91759C768.673 2.12039 765.355 12.8585 762.41 15.8132Z" fill="white"/>
<path fill-rule="evenodd" clip-rule="evenodd" d="M741.353 -1.93036H752.226C752.226 -1.93036 754.418 5.65327 747.991 9.99292C746.668 8.59222 745.799 7.26948 745.232 6.119" fill="white"/>
<path fill-rule="evenodd" clip-rule="evenodd" d="M780.104 -1.93031H790.977C790.977 -1.93031 792.724 6.70332 786.297 11.043C784.974 9.64227 783.624 8.19647 783.542 6.11905" fill="white"/>
<path fill-rule="evenodd" clip-rule="evenodd" d="M118.606 -1.93031H112.655C108.524 1.45143 113.139 10.3395 109.8 16.8096C120.228 6.36102 118.606 -1.93031 118.606 -1.93031Z" fill="white"/>
<path fill-rule="evenodd" clip-rule="evenodd" d="M116.578 -1.93039H122.97C127.1 1.45135 120.081 6.85286 123.415 13.3235C120.288 9.70592 118.489 7.69601 117.481 5.45689" fill="white"/>
<path fill-rule="evenodd" clip-rule="evenodd" d="M114.8 -1.93036H105.035C105.035 -1.93036 101.735 5.65327 108.162 9.99292C109.485 8.59222 110.354 7.26948 110.921 6.119" fill="white"/>
<path fill-rule="evenodd" clip-rule="evenodd" d="M136.602 -1.93027H128.86C124.73 1.45146 130.435 11.8079 127.1 18.2822C137.528 7.83158 136.602 -1.93027 136.602 -1.93027Z" fill="white"/>
<path fill-rule="evenodd" clip-rule="evenodd" d="M105.199 6.78532C104.251 10.3024 103.265 14.1679 104.896 17.3284C94.4682 6.87982 99.7534 -1.93073 99.7534 -1.93073H105.034" fill="white"/>
<path fill-rule="evenodd" clip-rule="evenodd" d="M100.852 -1.93024H94.4597C90.3293 1.45149 97.3488 7.56491 94.0143 14.0371C96.1508 11.568 97.6646 9.13371 98.7328 7.57698" fill="white"/>
<path fill-rule="evenodd" clip-rule="evenodd" d="M97.2668 -1.93039H88.5821C88.5821 -1.93039 84.4258 -0.556357 90.0569 11.4141C90.2429 8.00975 91.7869 5.63276 93.3266 3.12064" fill="white"/>
<path fill-rule="evenodd" clip-rule="evenodd" d="M157.258 -1.93031H151.307C147.177 1.45143 152.963 10.3395 149.629 16.8096C160.061 6.36102 157.258 -1.93031 157.258 -1.93031Z" fill="white"/>
<path fill-rule="evenodd" clip-rule="evenodd" d="M155.229 -1.93016H162.05C167.465 1.64435 157.453 7.86004 160.787 14.3328C157.66 10.7152 155.653 8.62549 156.566 6.28976" fill="white"/>
<path fill-rule="evenodd" clip-rule="evenodd" d="M153.457 -1.93021H143.691C143.691 -1.93021 140.72 5.71484 147.151 10.0503C151.878 6.82034 150.339 6.12098 150.339 6.12098" fill="white"/>
<path fill-rule="evenodd" clip-rule="evenodd" d="M174.186 -1.93027H167.517C163.387 1.45146 170.168 12.4537 166.83 18.928C177.257 8.47523 174.186 -1.93027 174.186 -1.93027Z" fill="white"/>
<path fill-rule="evenodd" clip-rule="evenodd" d="M172.158 -1.93031H179.514C183.645 1.45143 175.458 7.97907 178.797 14.4534C176.569 11.8755 175.12 8.98812 174.104 7.37637" fill="white"/>
<path fill-rule="evenodd" clip-rule="evenodd" d="M175.749 -1.93018H184.861C184.861 -1.93018 190.198 0.752258 182.958 11.6521C182.772 8.24779 181.765 5.63297 180.221 3.12085" fill="white"/>
<path fill-rule="evenodd" clip-rule="evenodd" d="M139.638 15.8132C136.688 12.8581 133.38 2.11808 134.435 -1.91759L135.979 -1.92169L135.975 -1.93195L139.638 -1.92785L143.301 -1.93195L143.297 -1.92169L144.841 -1.91759C145.901 2.12039 142.583 12.8585 139.638 15.8132Z" fill="white"/>
<path fill-rule="evenodd" clip-rule="evenodd" d="M118.581 -1.93036H129.454C129.454 -1.93036 131.646 5.65327 125.219 9.99292C123.896 8.59222 123.027 7.26948 122.46 6.119" fill="white"/>
<path fill-rule="evenodd" clip-rule="evenodd" d="M157.333 -1.93031H168.206C168.206 -1.93031 169.953 6.70332 163.526 11.043C162.202 9.64227 160.853 8.19647 160.771 6.11905" fill="white"/>
<path fill-rule="evenodd" clip-rule="evenodd" d="M835.531 -1.93031H829.58C825.45 1.45143 830.064 10.3395 826.726 16.8096C837.153 6.36102 835.531 -1.93031 835.531 -1.93031Z" fill="white"/>
<path fill-rule="evenodd" clip-rule="evenodd" d="M833.503 -1.93039H839.895C844.026 1.45135 837.006 6.85286 840.341 13.3235C837.214 9.70592 835.415 7.69601 834.407 5.45689" fill="white"/>
<path fill-rule="evenodd" clip-rule="evenodd" d="M831.726 -1.93036H821.96C821.96 -1.93036 818.66 5.65327 825.087 9.99292C826.41 8.59222 827.28 7.26948 827.846 6.119" fill="white"/>
<path fill-rule="evenodd" clip-rule="evenodd" d="M853.527 -1.93027H845.786C841.655 1.45146 847.36 11.8079 844.025 18.2822C854.453 7.83158 853.527 -1.93027 853.527 -1.93027Z" fill="white"/>
<path fill-rule="evenodd" clip-rule="evenodd" d="M822.124 6.78532C821.177 10.3024 820.191 14.1679 821.821 17.3284C811.393 6.87982 816.679 -1.93073 816.679 -1.93073H821.959" fill="white"/>
<path fill-rule="evenodd" clip-rule="evenodd" d="M817.777 -1.93024H811.385C807.255 1.45149 814.274 7.56491 810.94 14.0371C813.076 11.568 814.59 9.13371 815.658 7.57698" fill="white"/>
<path fill-rule="evenodd" clip-rule="evenodd" d="M814.192 -1.93039H805.507C805.507 -1.93039 801.351 -0.556357 806.982 11.4141C807.168 8.00975 808.712 5.63276 810.252 3.12064" fill="white"/>
<path fill-rule="evenodd" clip-rule="evenodd" d="M874.183 -1.93031H868.232C864.102 1.45143 869.889 10.3395 866.554 16.8096C876.986 6.36102 874.183 -1.93031 874.183 -1.93031Z" fill="white"/>
<path fill-rule="evenodd" clip-rule="evenodd" d="M872.155 -1.93016H878.976C884.391 1.64435 874.378 7.86004 877.713 14.3328C874.586 10.7152 872.579 8.62549 873.492 6.28976" fill="white"/>
<path fill-rule="evenodd" clip-rule="evenodd" d="M870.382 -1.93021H860.616C860.616 -1.93021 857.645 5.71484 864.076 10.0503C868.804 6.82034 867.264 6.12098 867.264 6.12098" fill="white"/>
<path fill-rule="evenodd" clip-rule="evenodd" d="M891.112 -1.93027H884.442C880.312 1.45146 887.094 12.4537 883.755 18.928C894.182 8.47523 891.112 -1.93027 891.112 -1.93027Z" fill="white"/>
<path fill-rule="evenodd" clip-rule="evenodd" d="M889.083 -1.93031H896.44C900.57 1.45143 892.383 7.97907 895.722 14.4534C893.494 11.8755 892.046 8.98812 891.029 7.37637" fill="white"/>
<path fill-rule="evenodd" clip-rule="evenodd" d="M892.674 -1.93018H901.787C901.787 -1.93018 907.124 0.752258 899.884 11.6521C899.698 8.24779 898.69 5.63297 897.146 3.12085" fill="white"/>
<path fill-rule="evenodd" clip-rule="evenodd" d="M856.563 15.8132C853.614 12.8581 850.305 2.11808 851.36 -1.91759L852.904 -1.92169L852.9 -1.93195L856.563 -1.92785L860.227 -1.93195L860.222 -1.92169L861.766 -1.91759C862.826 2.12039 859.509 12.8585 856.563 15.8132Z" fill="white"/>
<path fill-rule="evenodd" clip-rule="evenodd" d="M835.506 -1.93036H846.379C846.379 -1.93036 848.572 5.65327 842.145 9.99292C840.821 8.59222 839.952 7.26948 839.385 6.119" fill="white"/>
<path fill-rule="evenodd" clip-rule="evenodd" d="M874.258 -1.93031H885.131C885.131 -1.93031 886.878 6.70332 880.451 11.043C879.128 9.64227 877.778 8.19647 877.696 6.11905" fill="white"/>
<path fill-rule="evenodd" clip-rule="evenodd" d="M212.759 -1.93031H206.808C202.678 1.45143 207.292 10.3395 203.954 16.8096C214.381 6.36102 212.759 -1.93031 212.759 -1.93031Z" fill="white"/>
<path fill-rule="evenodd" clip-rule="evenodd" d="M210.731 -1.93039H217.123C221.254 1.45135 214.234 6.85286 217.569 13.3235C214.442 9.70592 212.643 7.69601 211.635 5.45689" fill="white"/>
<path fill-rule="evenodd" clip-rule="evenodd" d="M208.954 -1.93036H199.188C199.188 -1.93036 195.888 5.65327 202.315 9.99292C203.638 8.59222 204.508 7.26948 205.074 6.119" fill="white"/>
<path fill-rule="evenodd" clip-rule="evenodd" d="M230.755 -1.93027H223.014C218.883 1.45146 224.588 11.8079 221.253 18.2822C231.681 7.83158 230.755 -1.93027 230.755 -1.93027Z" fill="white"/>
<path fill-rule="evenodd" clip-rule="evenodd" d="M199.352 6.78532C198.405 10.3024 197.419 14.1679 199.049 17.3284C188.622 6.87982 193.907 -1.93073 193.907 -1.93073H199.188" fill="white"/>
<path fill-rule="evenodd" clip-rule="evenodd" d="M195.005 -1.93024H188.613C184.483 1.45149 191.502 7.56491 188.168 14.0371C190.304 11.568 191.818 9.13371 192.886 7.57698" fill="white"/>
<path fill-rule="evenodd" clip-rule="evenodd" d="M191.42 -1.93039H182.735C182.735 -1.93039 178.579 -0.556357 184.21 11.4141C184.396 8.00975 185.94 5.63276 187.48 3.12064" fill="white"/>
<path fill-rule="evenodd" clip-rule="evenodd" d="M251.411 -1.93031H245.46C241.33 1.45143 247.117 10.3395 243.782 16.8096C254.214 6.36102 251.411 -1.93031 251.411 -1.93031Z" fill="white"/>
<path fill-rule="evenodd" clip-rule="evenodd" d="M249.383 -1.93016H256.203C261.618 1.64435 251.606 7.86004 254.94 14.3328C251.814 10.7152 249.807 8.62549 250.719 6.28976" fill="white"/>
<path fill-rule="evenodd" clip-rule="evenodd" d="M247.61 -1.93021H237.844C237.844 -1.93021 234.873 5.71484 241.304 10.0503C246.032 6.82034 244.492 6.12098 244.492 6.12098" fill="white"/>
<path fill-rule="evenodd" clip-rule="evenodd" d="M268.34 -1.93027H261.67C257.54 1.45146 264.322 12.4537 260.983 18.928C271.41 8.47523 268.34 -1.93027 268.34 -1.93027Z" fill="white"/>
<path fill-rule="evenodd" clip-rule="evenodd" d="M266.311 -1.93031H273.668C277.798 1.45143 269.611 7.97907 272.95 14.4534C270.723 11.8755 269.274 8.98812 268.257 7.37637" fill="white"/>
<path fill-rule="evenodd" clip-rule="evenodd" d="M269.902 -1.93018H279.015C279.015 -1.93018 284.352 0.752258 277.112 11.6521C276.926 8.24779 275.918 5.63297 274.374 3.12085" fill="white"/>
<path fill-rule="evenodd" clip-rule="evenodd" d="M233.791 15.8132C230.842 12.8581 227.533 2.11808 228.588 -1.91759L230.132 -1.92169L230.128 -1.93195L233.791 -1.92785L237.455 -1.93195L237.45 -1.92169L238.994 -1.91759C240.054 2.12039 236.737 12.8585 233.791 15.8132Z" fill="white"/>
<path fill-rule="evenodd" clip-rule="evenodd" d="M212.734 -1.93036H223.607C223.607 -1.93036 225.8 5.65327 219.373 9.99292C218.049 8.59222 217.18 7.26948 216.613 6.119" fill="white"/>
<path fill-rule="evenodd" clip-rule="evenodd" d="M251.486 -1.93031H262.359C262.359 -1.93031 264.106 6.70332 257.679 11.043C256.356 9.64227 255.006 8.19647 254.924 6.11905" fill="white"/>
<path fill-rule="evenodd" clip-rule="evenodd" d="M927.416 -1.93031H921.464C917.334 1.45143 921.949 10.3395 918.61 16.8096C929.037 6.36102 927.416 -1.93031 927.416 -1.93031Z" fill="white"/>
<path fill-rule="evenodd" clip-rule="evenodd" d="M925.387 -1.93039H931.78C935.91 1.45135 928.89 6.85286 932.225 13.3235C929.098 9.70592 927.299 7.69601 926.291 5.45689" fill="white"/>
<path fill-rule="evenodd" clip-rule="evenodd" d="M923.61 -1.93036H913.844C913.844 -1.93036 910.544 5.65327 916.971 9.99292C918.295 8.59222 919.164 7.26948 919.73 6.119" fill="white"/>
<path fill-rule="evenodd" clip-rule="evenodd" d="M945.412 -1.93027H937.67C933.539 1.45146 939.244 11.8079 935.91 18.2822C946.337 7.83158 945.412 -1.93027 945.412 -1.93027Z" fill="white"/>
<path fill-rule="evenodd" clip-rule="evenodd" d="M914.008 6.78532C913.061 10.3024 912.075 14.1679 913.705 17.3284C903.278 6.87982 908.563 -1.93073 908.563 -1.93073H913.844" fill="white"/>
<path fill-rule="evenodd" clip-rule="evenodd" d="M909.662 -1.93024H903.269C899.139 1.45149 906.158 7.56491 902.824 14.0371C904.96 11.568 906.474 9.13371 907.542 7.57698" fill="white"/>
<path fill-rule="evenodd" clip-rule="evenodd" d="M906.076 -1.93039H897.392C897.392 -1.93039 893.235 -0.556357 898.866 11.4141C899.052 8.00975 900.596 5.63276 902.136 3.12064" fill="white"/>
<path fill-rule="evenodd" clip-rule="evenodd" d="M966.068 -1.93031H960.117C955.986 1.45143 961.773 10.3395 958.438 16.8096C968.87 6.36102 966.068 -1.93031 966.068 -1.93031Z" fill="white"/>
<path fill-rule="evenodd" clip-rule="evenodd" d="M964.039 -1.93016H970.86C976.274 1.64435 966.262 7.86004 969.597 14.3328C966.47 10.7152 964.463 8.62549 965.376 6.28976" fill="white"/>
<path fill-rule="evenodd" clip-rule="evenodd" d="M962.267 -1.93021H952.501C952.501 -1.93021 949.529 5.71484 955.961 10.0503C960.688 6.82034 959.148 6.12098 959.148 6.12098" fill="white"/>
<path fill-rule="evenodd" clip-rule="evenodd" d="M982.996 -1.93027H976.327C972.196 1.45146 978.978 12.4537 975.639 18.928C986.067 8.47523 982.996 -1.93027 982.996 -1.93027Z" fill="white"/>
<path fill-rule="evenodd" clip-rule="evenodd" d="M980.967 -1.93031H988.324C992.454 1.45143 984.267 7.97907 987.606 14.4534C985.379 11.8755 983.93 8.98812 982.913 7.37637" fill="white"/>
<path fill-rule="evenodd" clip-rule="evenodd" d="M984.558 -1.93018H993.671C993.671 -1.93018 999.008 0.752258 991.768 11.6521C991.582 8.24779 990.574 5.63297 989.03 3.12085" fill="white"/>
<path fill-rule="evenodd" clip-rule="evenodd" d="M948.448 15.8132C945.498 12.8581 942.189 2.11808 943.245 -1.91759L944.789 -1.92169L944.784 -1.93195L948.448 -1.92785L952.111 -1.93195L952.107 -1.92169L953.651 -1.91759C954.71 2.12039 951.393 12.8585 948.448 15.8132Z" fill="white"/>
<path fill-rule="evenodd" clip-rule="evenodd" d="M927.39 -1.93036H938.263C938.263 -1.93036 940.456 5.65327 934.029 9.99292C932.706 8.59222 931.836 7.26948 931.27 6.119" fill="white"/>
<path fill-rule="evenodd" clip-rule="evenodd" d="M966.142 -1.93031H977.015C977.015 -1.93031 978.762 6.70332 972.335 11.043C971.012 9.64227 969.663 8.19647 969.58 6.11905" fill="white"/>
<path fill-rule="evenodd" clip-rule="evenodd" d="M305.778 -1.93031H299.827C295.696 1.45143 300.311 10.3395 296.972 16.8096C307.4 6.36102 305.778 -1.93031 305.778 -1.93031Z" fill="white"/>
<path fill-rule="evenodd" clip-rule="evenodd" d="M303.75 -1.93039H310.142C314.272 1.45135 307.253 6.85286 310.587 13.3235C307.46 9.70592 305.661 7.69601 304.653 5.45689" fill="white"/>
<path fill-rule="evenodd" clip-rule="evenodd" d="M301.972 -1.93036H292.206C292.206 -1.93036 288.906 5.65327 295.333 9.99292C296.657 8.59222 297.526 7.26948 298.093 6.119" fill="white"/>
<path fill-rule="evenodd" clip-rule="evenodd" d="M323.774 -1.93027H316.032C311.902 1.45146 317.607 11.8079 314.272 18.2822C324.7 7.83158 323.774 -1.93027 323.774 -1.93027Z" fill="white"/>
<path fill-rule="evenodd" clip-rule="evenodd" d="M292.37 6.78532C291.423 10.3024 290.437 14.1679 292.068 17.3284C281.64 6.87982 286.925 -1.93073 286.925 -1.93073H292.206" fill="white"/>
<path fill-rule="evenodd" clip-rule="evenodd" d="M288.024 -1.93024H281.632C277.501 1.45149 284.521 7.56491 281.186 14.0371C283.323 11.568 284.836 9.13371 285.905 7.57698" fill="white"/>
<path fill-rule="evenodd" clip-rule="evenodd" d="M284.439 -1.93039H275.754C275.754 -1.93039 271.598 -0.556357 277.229 11.4141C277.415 8.00975 278.959 5.63276 280.498 3.12064" fill="white"/>
<path fill-rule="evenodd" clip-rule="evenodd" d="M344.43 -1.93031H338.479C334.348 1.45143 340.135 10.3395 336.801 16.8096C347.233 6.36102 344.43 -1.93031 344.43 -1.93031Z" fill="white"/>
<path fill-rule="evenodd" clip-rule="evenodd" d="M342.401 -1.93016H349.222C354.637 1.64435 344.625 7.86004 347.959 14.3328C344.832 10.7152 342.825 8.62549 343.738 6.28976" fill="white"/>
<path fill-rule="evenodd" clip-rule="evenodd" d="M340.629 -1.93021H330.863C330.863 -1.93021 327.892 5.71484 334.323 10.0503C339.05 6.82034 337.511 6.12098 337.511 6.12098" fill="white"/>
<path fill-rule="evenodd" clip-rule="evenodd" d="M361.358 -1.93027H354.689C350.559 1.45146 357.34 12.4537 354.001 18.928C364.429 8.47523 361.358 -1.93027 361.358 -1.93027Z" fill="white"/>
<path fill-rule="evenodd" clip-rule="evenodd" d="M359.33 -1.93031H366.686C370.817 1.45143 362.629 7.97907 365.968 14.4534C363.741 11.8755 362.292 8.98812 361.276 7.37637" fill="white"/>
<path fill-rule="evenodd" clip-rule="evenodd" d="M362.92 -1.93018H372.033C372.033 -1.93018 377.37 0.752258 370.13 11.6521C369.944 8.24779 368.936 5.63297 367.392 3.12085" fill="white"/>
<path fill-rule="evenodd" clip-rule="evenodd" d="M326.81 15.8132C323.86 12.8581 320.552 2.11808 321.607 -1.91759L323.151 -1.92169L323.147 -1.93195L326.81 -1.92785L330.473 -1.93195L330.469 -1.92169L332.013 -1.91759C333.072 2.12039 329.755 12.8585 326.81 15.8132Z" fill="white"/>
<path fill-rule="evenodd" clip-rule="evenodd" d="M305.752 -1.93036H316.625C316.625 -1.93036 318.818 5.65327 312.391 9.99292C311.068 8.59222 310.199 7.26948 309.632 6.119" fill="white"/>
<path fill-rule="evenodd" clip-rule="evenodd" d="M344.504 -1.93031H355.377C355.377 -1.93031 357.125 6.70332 350.698 11.043C349.374 9.64227 348.025 8.19647 347.943 6.11905" fill="white"/>
<path fill-rule="evenodd" clip-rule="evenodd" d="M1022.7 -1.93031H1016.75C1012.62 1.45143 1017.24 10.3395 1013.9 16.8096C1024.33 6.36102 1022.7 -1.93031 1022.7 -1.93031Z" fill="white"/>
<path fill-rule="evenodd" clip-rule="evenodd" d="M1020.67 -1.93039H1027.07C1031.2 1.45135 1024.18 6.85286 1027.51 13.3235C1024.39 9.70592 1022.59 7.69601 1021.58 5.45689" fill="white"/>
<path fill-rule="evenodd" clip-rule="evenodd" d="M1018.9 -1.93036H1009.13C1009.13 -1.93036 1005.83 5.65327 1012.26 9.99292C1013.58 8.59222 1014.45 7.26948 1015.02 6.119" fill="white"/>
<path fill-rule="evenodd" clip-rule="evenodd" d="M1040.7 -1.93027H1032.96C1028.83 1.45146 1034.53 11.8079 1031.2 18.2822C1041.62 7.83158 1040.7 -1.93027 1040.7 -1.93027Z" fill="white"/>
<path fill-rule="evenodd" clip-rule="evenodd" d="M1009.3 6.78532C1008.35 10.3024 1007.36 14.1679 1008.99 17.3284C998.565 6.87982 1003.85 -1.93073 1003.85 -1.93073H1009.13" fill="white"/>
<path fill-rule="evenodd" clip-rule="evenodd" d="M1004.95 -1.93024H998.557C994.426 1.45149 1001.45 7.56491 998.111 14.0371C1000.25 11.568 1001.76 9.13371 1002.83 7.57698" fill="white"/>
<path fill-rule="evenodd" clip-rule="evenodd" d="M1001.36 -1.93039H992.679C992.679 -1.93039 988.523 -0.556357 994.154 11.4141C994.34 8.00975 995.884 5.63276 997.424 3.12064" fill="white"/>
<path fill-rule="evenodd" clip-rule="evenodd" d="M1061.36 -1.93031H1055.4C1051.27 1.45143 1057.06 10.3395 1053.73 16.8096C1064.16 6.36102 1061.36 -1.93031 1061.36 -1.93031Z" fill="white"/>
<path fill-rule="evenodd" clip-rule="evenodd" d="M1059.33 -1.93016H1066.15C1071.56 1.64435 1061.55 7.86004 1064.88 14.3328C1061.76 10.7152 1059.75 8.62549 1060.66 6.28976" fill="white"/>
<path fill-rule="evenodd" clip-rule="evenodd" d="M1057.55 -1.93021H1047.79C1047.79 -1.93021 1044.82 5.71484 1051.25 10.0503C1055.98 6.82034 1054.44 6.12098 1054.44 6.12098" fill="white"/>
<path fill-rule="evenodd" clip-rule="evenodd" d="M1078.28 -1.93027H1071.61C1067.48 1.45146 1074.27 12.4537 1070.93 18.928C1081.35 8.47523 1078.28 -1.93027 1078.28 -1.93027Z" fill="white"/>
<path fill-rule="evenodd" clip-rule="evenodd" d="M1076.25 -1.93031H1083.61C1087.74 1.45143 1079.55 7.97907 1082.89 14.4534C1080.67 11.8755 1079.22 8.98812 1078.2 7.37637" fill="white"/>
<path fill-rule="evenodd" clip-rule="evenodd" d="M1079.85 -1.93018H1088.96C1088.96 -1.93018 1094.3 0.752258 1087.06 11.6521C1086.87 8.24779 1085.86 5.63297 1084.32 3.12085" fill="white"/>
<path fill-rule="evenodd" clip-rule="evenodd" d="M1043.74 15.8132C1040.79 12.8581 1037.48 2.11808 1038.53 -1.91759L1040.08 -1.92169L1040.07 -1.93195L1043.74 -1.92785L1047.4 -1.93195L1047.39 -1.92169L1048.94 -1.91759C1050 2.12039 1046.68 12.8585 1043.74 15.8132Z" fill="white"/>
<path fill-rule="evenodd" clip-rule="evenodd" d="M1022.68 -1.93036H1033.55C1033.55 -1.93036 1035.74 5.65327 1029.32 9.99292C1027.99 8.59222 1027.12 7.26948 1026.56 6.119" fill="white"/>
<path fill-rule="evenodd" clip-rule="evenodd" d="M1061.43 -1.93031H1072.3C1072.3 -1.93031 1074.05 6.70332 1067.62 11.043C1066.3 9.64227 1064.95 8.19647 1064.87 6.11905" fill="white"/>
<path fill-rule="evenodd" clip-rule="evenodd" d="M382.916 -1.93031H376.964C372.834 1.45143 377.449 10.3395 374.11 16.8096C384.537 6.36102 382.916 -1.93031 382.916 -1.93031Z" fill="white"/>
<path fill-rule="evenodd" clip-rule="evenodd" d="M380.887 -1.93039H387.28C391.41 1.45135 384.39 6.85286 387.725 13.3235C384.598 9.70592 382.799 7.69601 381.791 5.45689" fill="white"/>
<path fill-rule="evenodd" clip-rule="evenodd" d="M379.11 -1.93036H369.344C369.344 -1.93036 366.044 5.65327 372.471 9.99292C373.795 8.59222 374.664 7.26948 375.23 6.119" fill="white"/>
<path fill-rule="evenodd" clip-rule="evenodd" d="M400.912 -1.93027H393.17C389.039 1.45146 394.744 11.8079 391.41 18.2822C401.837 7.83158 400.912 -1.93027 400.912 -1.93027Z" fill="white"/>
<path fill-rule="evenodd" clip-rule="evenodd" d="M369.508 6.78532C368.561 10.3024 367.575 14.1679 369.205 17.3284C358.778 6.87982 364.063 -1.93073 364.063 -1.93073H369.344" fill="white"/>
<path fill-rule="evenodd" clip-rule="evenodd" d="M365.162 -1.93024H358.769C354.639 1.45149 361.658 7.56491 358.324 14.0371C360.46 11.568 361.974 9.13371 363.042 7.57698" fill="white"/>
<path fill-rule="evenodd" clip-rule="evenodd" d="M361.576 -1.93039H352.892C352.892 -1.93039 348.735 -0.556357 354.366 11.4141C354.552 8.00975 356.096 5.63276 357.636 3.12064" fill="white"/>
<path fill-rule="evenodd" clip-rule="evenodd" d="M421.568 -1.93031H415.617C411.486 1.45143 417.273 10.3395 413.938 16.8096C424.37 6.36102 421.568 -1.93031 421.568 -1.93031Z" fill="white"/>
<path fill-rule="evenodd" clip-rule="evenodd" d="M419.539 -1.93016H426.36C431.774 1.64435 421.762 7.86004 425.097 14.3328C421.97 10.7152 419.963 8.62549 420.876 6.28976" fill="white"/>
<path fill-rule="evenodd" clip-rule="evenodd" d="M417.767 -1.93021H408.001C408.001 -1.93021 405.029 5.71484 411.461 10.0503C416.188 6.82034 414.648 6.12098 414.648 6.12098" fill="white"/>
<path fill-rule="evenodd" clip-rule="evenodd" d="M438.496 -1.93027H431.827C427.696 1.45146 434.478 12.4537 431.139 18.928C441.567 8.47523 438.496 -1.93027 438.496 -1.93027Z" fill="white"/>
<path fill-rule="evenodd" clip-rule="evenodd" d="M436.467 -1.93031H443.824C447.954 1.45143 439.767 7.97907 443.106 14.4534C440.879 11.8755 439.43 8.98812 438.413 7.37637" fill="white"/>
<path fill-rule="evenodd" clip-rule="evenodd" d="M440.058 -1.93018H449.171C449.171 -1.93018 454.508 0.752258 447.268 11.6521C447.082 8.24779 446.074 5.63297 444.53 3.12085" fill="white"/>
<path fill-rule="evenodd" clip-rule="evenodd" d="M403.948 15.8132C400.998 12.8581 397.689 2.11808 398.745 -1.91759L400.289 -1.92169L400.284 -1.93195L403.948 -1.92785L407.611 -1.93195L407.607 -1.92169L409.151 -1.91759C410.21 2.12039 406.893 12.8585 403.948 15.8132Z" fill="white"/>
<path fill-rule="evenodd" clip-rule="evenodd" d="M382.89 -1.93036H393.763C393.763 -1.93036 395.956 5.65327 389.529 9.99292C388.206 8.59222 387.336 7.26948 386.77 6.119" fill="white"/>
<path fill-rule="evenodd" clip-rule="evenodd" d="M421.642 -1.93031H432.515C432.515 -1.93031 434.262 6.70332 427.835 11.043C426.512 9.64227 425.163 8.19647 425.08 6.11905" fill="white"/>
<path fill-rule="evenodd" clip-rule="evenodd" d="M1097.57 -1.93031H1091.62C1087.49 1.45143 1092.1 10.3395 1088.77 16.8096C1099.19 6.36102 1097.57 -1.93031 1097.57 -1.93031Z" fill="white"/>
<path fill-rule="evenodd" clip-rule="evenodd" d="M1095.54 -1.93039H1101.94C1106.07 1.45135 1099.05 6.85286 1102.38 13.3235C1099.25 9.70592 1097.46 7.69601 1096.45 5.45689" fill="white"/>
<path fill-rule="evenodd" clip-rule="evenodd" d="M1093.77 -1.93036H1084C1084 -1.93036 1080.7 5.65327 1087.13 9.99292C1088.45 8.59222 1089.32 7.26948 1089.89 6.119" fill="white"/>
<path fill-rule="evenodd" clip-rule="evenodd" d="M1115.57 -1.93027H1107.83C1103.7 1.45146 1109.4 11.8079 1106.07 18.2822C1116.49 7.83158 1115.57 -1.93027 1115.57 -1.93027Z" fill="white"/>
<path fill-rule="evenodd" clip-rule="evenodd" d="M1084.16 6.78532C1083.22 10.3024 1082.23 14.1679 1083.86 17.3284C1073.43 6.87982 1078.72 -1.93073 1078.72 -1.93073H1084" fill="white"/>
<path fill-rule="evenodd" clip-rule="evenodd" d="M1079.82 -1.93024H1073.43C1069.3 1.45149 1076.31 7.56491 1072.98 14.0371C1075.12 11.568 1076.63 9.13371 1077.7 7.57698" fill="white"/>
<path fill-rule="evenodd" clip-rule="evenodd" d="M1076.23 -1.93039H1067.55C1067.55 -1.93039 1063.39 -0.556357 1069.02 11.4141C1069.21 8.00975 1070.75 5.63276 1072.29 3.12064" fill="white"/>
<path fill-rule="evenodd" clip-rule="evenodd" d="M1136.22 -1.93031H1130.27C1126.14 1.45143 1131.93 10.3395 1128.59 16.8096C1139.03 6.36102 1136.22 -1.93031 1136.22 -1.93031Z" fill="white"/>
<path fill-rule="evenodd" clip-rule="evenodd" d="M1134.2 -1.93016H1141.02C1146.43 1.64435 1136.42 7.86004 1139.75 14.3328C1136.63 10.7152 1134.62 8.62549 1135.53 6.28976" fill="white"/>
<path fill-rule="evenodd" clip-rule="evenodd" d="M1132.42 -1.93021H1122.66C1122.66 -1.93021 1119.69 5.71484 1126.12 10.0503C1130.84 6.82034 1129.3 6.12098 1129.3 6.12098" fill="white"/>
<path fill-rule="evenodd" clip-rule="evenodd" d="M1153.15 -1.93027H1146.48C1142.35 1.45146 1149.13 12.4537 1145.8 18.928C1156.22 8.47523 1153.15 -1.93027 1153.15 -1.93027Z" fill="white"/>
<path fill-rule="evenodd" clip-rule="evenodd" d="M1151.12 -1.93031H1158.48C1162.61 1.45143 1154.42 7.97907 1157.76 14.4534C1155.54 11.8755 1154.09 8.98812 1153.07 7.37637" fill="white"/>
<path fill-rule="evenodd" clip-rule="evenodd" d="M1154.71 -1.93018H1163.83C1163.83 -1.93018 1169.16 0.752258 1161.92 11.6521C1161.74 8.24779 1160.73 5.63297 1159.19 3.12085" fill="white"/>
<path fill-rule="evenodd" clip-rule="evenodd" d="M1118.6 15.8132C1115.65 12.8581 1112.35 2.11808 1113.4 -1.91759L1114.94 -1.92169L1114.94 -1.93195L1118.6 -1.92785L1122.27 -1.93195L1122.26 -1.92169L1123.81 -1.91759C1124.87 2.12039 1121.55 12.8585 1118.6 15.8132Z" fill="white"/>
<path fill-rule="evenodd" clip-rule="evenodd" d="M1097.55 -1.93036H1108.42C1108.42 -1.93036 1110.61 5.65327 1104.19 9.99292C1102.86 8.59222 1101.99 7.26948 1101.43 6.119" fill="white"/>
<path fill-rule="evenodd" clip-rule="evenodd" d="M1136.3 -1.93031H1147.17C1147.17 -1.93031 1148.92 6.70332 1142.49 11.043C1141.17 9.64227 1139.82 8.19647 1139.74 6.11905" fill="white"/>
<path fill-rule="evenodd" clip-rule="evenodd" d="M475.934 -1.93031H469.983C465.852 1.45143 470.467 10.3395 467.128 16.8096C477.556 6.36102 475.934 -1.93031 475.934 -1.93031Z" fill="white"/>
<path fill-rule="evenodd" clip-rule="evenodd" d="M473.906 -1.93039H480.298C484.428 1.45135 477.409 6.85286 480.744 13.3235C477.617 9.70592 475.817 7.69601 474.81 5.45689" fill="white"/>
<path fill-rule="evenodd" clip-rule="evenodd" d="M472.129 -1.93036H462.363C462.363 -1.93036 459.063 5.65327 465.49 9.99292C466.813 8.59222 467.682 7.26948 468.249 6.119" fill="white"/>
<path fill-rule="evenodd" clip-rule="evenodd" d="M493.93 -1.93027H486.188C482.058 1.45146 487.763 11.8079 484.428 18.2822C494.856 7.83158 493.93 -1.93027 493.93 -1.93027Z" fill="white"/>
<path fill-rule="evenodd" clip-rule="evenodd" d="M462.527 6.78532C461.579 10.3024 460.593 14.1679 462.224 17.3284C451.796 6.87982 457.082 -1.93073 457.082 -1.93073H462.362" fill="white"/>
<path fill-rule="evenodd" clip-rule="evenodd" d="M458.18 -1.93024H451.788C447.657 1.45149 454.677 7.56491 451.342 14.0371C453.479 11.568 454.993 9.13371 456.061 7.57698" fill="white"/>
<path fill-rule="evenodd" clip-rule="evenodd" d="M454.595 -1.93039H445.91C445.91 -1.93039 441.754 -0.556357 447.385 11.4141C447.571 8.00975 449.115 5.63276 450.655 3.12064" fill="white"/>
<path fill-rule="evenodd" clip-rule="evenodd" d="M514.586 -1.93031H508.635C504.505 1.45143 510.292 10.3395 506.957 16.8096C517.389 6.36102 514.586 -1.93031 514.586 -1.93031Z" fill="white"/>
<path fill-rule="evenodd" clip-rule="evenodd" d="M512.558 -1.93016H519.378C524.793 1.64435 514.781 7.86004 518.115 14.3328C514.988 10.7152 512.982 8.62549 513.894 6.28976" fill="white"/>
<path fill-rule="evenodd" clip-rule="evenodd" d="M510.785 -1.93021H501.019C501.019 -1.93021 498.048 5.71484 504.479 10.0503C509.206 6.82034 507.667 6.12098 507.667 6.12098" fill="white"/>
<path fill-rule="evenodd" clip-rule="evenodd" d="M531.514 -1.93027H524.845C520.715 1.45146 527.496 12.4537 524.158 18.928C534.585 8.47523 531.514 -1.93027 531.514 -1.93027Z" fill="white"/>
<path fill-rule="evenodd" clip-rule="evenodd" d="M529.486 -1.93031H536.843C540.973 1.45143 532.786 7.97907 536.125 14.4534C533.897 11.8755 532.448 8.98812 531.432 7.37637" fill="white"/>
<path fill-rule="evenodd" clip-rule="evenodd" d="M533.077 -1.93018H542.189C542.189 -1.93018 547.526 0.752258 540.286 11.6521C540.1 8.24779 539.093 5.63297 537.549 3.12085" fill="white"/>
<path fill-rule="evenodd" clip-rule="evenodd" d="M496.966 15.8132C494.016 12.8581 490.708 2.11808 491.763 -1.91759L493.307 -1.92169L493.303 -1.93195L496.966 -1.92785L500.629 -1.93195L500.625 -1.92169L502.169 -1.91759C503.229 2.12039 499.911 12.8585 496.966 15.8132Z" fill="white"/>
<path fill-rule="evenodd" clip-rule="evenodd" d="M475.909 -1.93036H486.782C486.782 -1.93036 488.975 5.65327 482.548 9.99292C481.224 8.59222 480.355 7.26948 479.788 6.119" fill="white"/>
<path fill-rule="evenodd" clip-rule="evenodd" d="M514.661 -1.93031H525.534C525.534 -1.93031 527.281 6.70332 520.854 11.043C519.531 9.64227 518.181 8.19647 518.099 6.11905" fill="white"/>
<path fill-rule="evenodd" clip-rule="evenodd" d="M1191.72 -1.93031H1185.77C1181.64 1.45143 1186.26 10.3395 1182.92 16.8096C1193.35 6.36102 1191.72 -1.93031 1191.72 -1.93031Z" fill="white"/>
<path fill-rule="evenodd" clip-rule="evenodd" d="M1189.7 -1.93039H1196.09C1200.22 1.45135 1193.2 6.85286 1196.53 13.3235C1193.41 9.70592 1191.61 7.69601 1190.6 5.45689" fill="white"/>
<path fill-rule="evenodd" clip-rule="evenodd" d="M1187.92 -1.93036H1178.15C1178.15 -1.93036 1174.85 5.65327 1181.28 9.99292C1182.6 8.59222 1183.47 7.26948 1184.04 6.119" fill="white"/>
<path fill-rule="evenodd" clip-rule="evenodd" d="M1209.72 -1.93027H1201.98C1197.85 1.45146 1203.55 11.8079 1200.22 18.2822C1210.65 7.83158 1209.72 -1.93027 1209.72 -1.93027Z" fill="white"/>
<path fill-rule="evenodd" clip-rule="evenodd" d="M1178.32 6.78532C1177.37 10.3024 1176.38 14.1679 1178.01 17.3284C1167.59 6.87982 1172.87 -1.93073 1172.87 -1.93073H1178.15" fill="white"/>
<path fill-rule="evenodd" clip-rule="evenodd" d="M1173.97 -1.93024H1167.58C1163.45 1.45149 1170.47 7.56491 1167.13 14.0371C1169.27 11.568 1170.78 9.13371 1171.85 7.57698" fill="white"/>
<path fill-rule="evenodd" clip-rule="evenodd" d="M1170.39 -1.93039H1161.7C1161.7 -1.93039 1157.54 -0.556357 1163.18 11.4141C1163.36 8.00975 1164.91 5.63276 1166.45 3.12064" fill="white"/>
<path fill-rule="evenodd" clip-rule="evenodd" d="M1230.38 -1.93031H1224.43C1220.3 1.45143 1226.08 10.3395 1222.75 16.8096C1233.18 6.36102 1230.38 -1.93031 1230.38 -1.93031Z" fill="white"/>
<path fill-rule="evenodd" clip-rule="evenodd" d="M1228.35 -1.93016H1235.17C1240.58 1.64435 1230.57 7.86004 1233.91 14.3328C1230.78 10.7152 1228.77 8.62549 1229.69 6.28976" fill="white"/>
<path fill-rule="evenodd" clip-rule="evenodd" d="M1226.58 -1.93021H1216.81C1216.81 -1.93021 1213.84 5.71484 1220.27 10.0503C1225 6.82034 1223.46 6.12098 1223.46 6.12098" fill="white"/>
<path fill-rule="evenodd" clip-rule="evenodd" d="M1247.3 -1.93027H1240.64C1236.51 1.45146 1243.29 12.4537 1239.95 18.928C1250.38 8.47523 1247.3 -1.93027 1247.3 -1.93027Z" fill="white"/>
<path fill-rule="evenodd" clip-rule="evenodd" d="M1245.28 -1.93031H1252.63C1256.76 1.45143 1248.58 7.97907 1251.92 14.4534C1249.69 11.8755 1248.24 8.98812 1247.22 7.37637" fill="white"/>
<path fill-rule="evenodd" clip-rule="evenodd" d="M1248.87 -1.93018H1257.98C1257.98 -1.93018 1263.32 0.752258 1256.08 11.6521C1255.89 8.24779 1254.88 5.63297 1253.34 3.12085" fill="white"/>
<path fill-rule="evenodd" clip-rule="evenodd" d="M1212.76 15.8132C1209.81 12.8581 1206.5 2.11808 1207.55 -1.91759L1209.1 -1.92169L1209.09 -1.93195L1212.76 -1.92785L1216.42 -1.93195L1216.42 -1.92169L1217.96 -1.91759C1219.02 2.12039 1215.7 12.8585 1212.76 15.8132Z" fill="white"/>
<path fill-rule="evenodd" clip-rule="evenodd" d="M1191.7 -1.93036H1202.57C1202.57 -1.93036 1204.77 5.65327 1198.34 9.99292C1197.01 8.59222 1196.15 7.26948 1195.58 6.119" fill="white"/>
<path fill-rule="evenodd" clip-rule="evenodd" d="M1230.45 -1.93031H1241.32C1241.32 -1.93031 1243.07 6.70332 1236.64 11.043C1235.32 9.64227 1233.97 8.19647 1233.89 6.11905" fill="white"/>
<path fill-rule="evenodd" clip-rule="evenodd" d="M568.953 -1.93031H563.002C558.872 1.45143 563.486 10.3395 560.147 16.8096C570.575 6.36102 568.953 -1.93031 568.953 -1.93031Z" fill="white"/>
<path fill-rule="evenodd" clip-rule="evenodd" d="M566.925 -1.93039H573.317C577.448 1.45135 570.428 6.85286 573.763 13.3235C570.636 9.70592 568.836 7.69601 567.829 5.45689" fill="white"/>
<path fill-rule="evenodd" clip-rule="evenodd" d="M565.148 -1.93036H555.382C555.382 -1.93036 552.082 5.65327 558.509 9.99292C559.832 8.59222 560.701 7.26948 561.268 6.119" fill="white"/>
<path fill-rule="evenodd" clip-rule="evenodd" d="M586.949 -1.93027H579.207C575.077 1.45146 580.782 11.8079 577.447 18.2822C587.875 7.83158 586.949 -1.93027 586.949 -1.93027Z" fill="white"/>
<path fill-rule="evenodd" clip-rule="evenodd" d="M555.546 6.78532C554.599 10.3024 553.612 14.1679 555.243 17.3284C544.815 6.87982 550.101 -1.93073 550.101 -1.93073H555.381" fill="white"/>
<path fill-rule="evenodd" clip-rule="evenodd" d="M551.199 -1.93024H544.807C540.676 1.45149 547.696 7.56491 544.361 14.0371C546.498 11.568 548.012 9.13371 549.08 7.57698" fill="white"/>
<path fill-rule="evenodd" clip-rule="evenodd" d="M547.614 -1.93039H538.929C538.929 -1.93039 534.773 -0.556357 540.404 11.4141C540.59 8.00975 542.134 5.63276 543.674 3.12064" fill="white"/>
<path fill-rule="evenodd" clip-rule="evenodd" d="M607.605 -1.93031H601.654C597.524 1.45143 603.311 10.3395 599.976 16.8096C610.408 6.36102 607.605 -1.93031 607.605 -1.93031Z" fill="white"/>
<path fill-rule="evenodd" clip-rule="evenodd" d="M605.577 -1.93016H612.398C617.813 1.64435 607.8 7.86004 611.135 14.3328C608.008 10.7152 606.001 8.62549 606.914 6.28976" fill="white"/>
<path fill-rule="evenodd" clip-rule="evenodd" d="M603.804 -1.93021H594.038C594.038 -1.93021 591.067 5.71484 597.498 10.0503C602.226 6.82034 600.686 6.12098 600.686 6.12098" fill="white"/>
<path fill-rule="evenodd" clip-rule="evenodd" d="M624.533 -1.93027H617.864C613.734 1.45146 620.516 12.4537 617.177 18.928C627.604 8.47523 624.533 -1.93027 624.533 -1.93027Z" fill="white"/>
<path fill-rule="evenodd" clip-rule="evenodd" d="M622.505 -1.93031H629.862C633.992 1.45143 625.805 7.97907 629.144 14.4534C626.916 11.8755 625.467 8.98812 624.451 7.37637" fill="white"/>
<path fill-rule="evenodd" clip-rule="evenodd" d="M626.096 -1.93018H635.208C635.208 -1.93018 640.546 0.752258 633.305 11.6521C633.119 8.24779 632.112 5.63297 630.568 3.12085" fill="white"/>
<path fill-rule="evenodd" clip-rule="evenodd" d="M589.985 15.8132C587.035 12.8581 583.727 2.11808 584.782 -1.91759L586.326 -1.92169L586.322 -1.93195L589.985 -1.92785L593.648 -1.93195L593.644 -1.92169L595.188 -1.91759C596.248 2.12039 592.93 12.8585 589.985 15.8132Z" fill="white"/>
<path fill-rule="evenodd" clip-rule="evenodd" d="M568.928 -1.93036H579.801C579.801 -1.93036 581.994 5.65327 575.567 9.99292C574.243 8.59222 573.374 7.26948 572.807 6.119" fill="white"/>
<path fill-rule="evenodd" clip-rule="evenodd" d="M607.68 -1.93031H618.553C618.553 -1.93031 620.3 6.70332 613.873 11.043C612.55 9.64227 611.2 8.19647 611.118 6.11905" fill="white"/>
<path fill-rule="evenodd" clip-rule="evenodd" d="M1284.74 -1.93031H1278.79C1274.66 1.45143 1279.28 10.3395 1275.94 16.8096C1286.37 6.36102 1284.74 -1.93031 1284.74 -1.93031Z" fill="white"/>
<path fill-rule="evenodd" clip-rule="evenodd" d="M1282.72 -1.93039H1289.11C1293.24 1.45135 1286.22 6.85286 1289.55 13.3235C1286.43 9.70592 1284.63 7.69601 1283.62 5.45689" fill="white"/>
<path fill-rule="evenodd" clip-rule="evenodd" d="M1280.94 -1.93036H1271.17C1271.17 -1.93036 1267.87 5.65327 1274.3 9.99292C1275.62 8.59222 1276.49 7.26948 1277.06 6.119" fill="white"/>
<path fill-rule="evenodd" clip-rule="evenodd" d="M1302.74 -1.93027H1295C1290.87 1.45146 1296.57 11.8079 1293.24 18.2822C1303.67 7.83158 1302.74 -1.93027 1302.74 -1.93027Z" fill="white"/>
<path fill-rule="evenodd" clip-rule="evenodd" d="M1271.34 6.78532C1270.39 10.3024 1269.4 14.1679 1271.03 17.3284C1260.61 6.87982 1265.89 -1.93073 1265.89 -1.93073H1271.17" fill="white"/>
<path fill-rule="evenodd" clip-rule="evenodd" d="M1266.99 -1.93024H1260.6C1256.47 1.45149 1263.49 7.56491 1260.15 14.0371C1262.29 11.568 1263.8 9.13371 1264.87 7.57698" fill="white"/>
<path fill-rule="evenodd" clip-rule="evenodd" d="M1263.4 -1.93039H1254.72C1254.72 -1.93039 1250.56 -0.556357 1256.19 11.4141C1256.38 8.00975 1257.92 5.63276 1259.46 3.12064" fill="white"/>
<path fill-rule="evenodd" clip-rule="evenodd" d="M1323.4 -1.93031H1317.44C1313.31 1.45143 1319.1 10.3395 1315.77 16.8096C1326.2 6.36102 1323.4 -1.93031 1323.4 -1.93031Z" fill="white"/>
<path fill-rule="evenodd" clip-rule="evenodd" d="M1321.37 -1.93016H1328.19C1333.6 1.64435 1323.59 7.86004 1326.92 14.3328C1323.8 10.7152 1321.79 8.62549 1322.7 6.28976" fill="white"/>
<path fill-rule="evenodd" clip-rule="evenodd" d="M1319.59 -1.93021H1309.83C1309.83 -1.93021 1306.86 5.71484 1313.29 10.0503C1318.02 6.82034 1316.48 6.12098 1316.48 6.12098" fill="white"/>
<path fill-rule="evenodd" clip-rule="evenodd" d="M1340.32 -1.93027H1333.65C1329.52 1.45146 1336.31 12.4537 1332.97 18.928C1343.39 8.47523 1340.32 -1.93027 1340.32 -1.93027Z" fill="white"/>
<path fill-rule="evenodd" clip-rule="evenodd" d="M1338.3 -1.93031H1345.65C1349.78 1.45143 1341.6 7.97907 1344.93 14.4534C1342.71 11.8755 1341.26 8.98812 1340.24 7.37637" fill="white"/>
<path fill-rule="evenodd" clip-rule="evenodd" d="M1341.89 -1.93018H1351C1351 -1.93018 1356.34 0.752258 1349.1 11.6521C1348.91 8.24779 1347.9 5.63297 1346.36 3.12085" fill="white"/>
<path fill-rule="evenodd" clip-rule="evenodd" d="M1305.78 15.8132C1302.83 12.8581 1299.52 2.11808 1300.57 -1.91759L1302.12 -1.92169L1302.11 -1.93195L1305.78 -1.92785L1309.44 -1.93195L1309.43 -1.92169L1310.98 -1.91759C1312.04 2.12039 1308.72 12.8585 1305.78 15.8132Z" fill="white"/>
<path fill-rule="evenodd" clip-rule="evenodd" d="M1284.72 -1.93036H1295.59C1295.59 -1.93036 1297.78 5.65327 1291.36 9.99292C1290.03 8.59222 1289.16 7.26948 1288.6 6.119" fill="white"/>
<path fill-rule="evenodd" clip-rule="evenodd" d="M1323.47 -1.93031H1334.34C1334.34 -1.93031 1336.09 6.70332 1329.66 11.043C1328.34 9.64227 1326.99 8.19647 1326.91 6.11905" fill="white"/>
<path fill-rule="evenodd" clip-rule="evenodd" d="M663.106 -1.93031H657.155C653.024 1.45143 657.639 10.3395 654.3 16.8096C664.728 6.36102 663.106 -1.93031 663.106 -1.93031Z" fill="white"/>
<path fill-rule="evenodd" clip-rule="evenodd" d="M661.078 -1.93039H667.47C671.6 1.45135 664.581 6.85286 667.915 13.3235C664.788 9.70592 662.989 7.69601 661.981 5.45689" fill="white"/>
<path fill-rule="evenodd" clip-rule="evenodd" d="M659.3 -1.93036H649.535C649.535 -1.93036 646.235 5.65327 652.662 9.99292C653.985 8.59222 654.854 7.26948 655.421 6.119" fill="white"/>
<path fill-rule="evenodd" clip-rule="evenodd" d="M681.102 -1.93027H673.36C669.23 1.45146 674.935 11.8079 671.6 18.2822C682.028 7.83158 681.102 -1.93027 681.102 -1.93027Z" fill="white"/>
<path fill-rule="evenodd" clip-rule="evenodd" d="M649.699 6.78532C648.751 10.3024 647.765 14.1679 649.396 17.3284C638.968 6.87982 644.253 -1.93073 644.253 -1.93073H649.534" fill="white"/>
<path fill-rule="evenodd" clip-rule="evenodd" d="M645.352 -1.93024H638.96C634.829 1.45149 641.849 7.56491 638.514 14.0371C640.651 11.568 642.165 9.13371 643.233 7.57698" fill="white"/>
<path fill-rule="evenodd" clip-rule="evenodd" d="M641.767 -1.93039H633.082C633.082 -1.93039 628.926 -0.556357 634.557 11.4141C634.743 8.00975 636.287 5.63276 637.827 3.12064" fill="white"/>
<path fill-rule="evenodd" clip-rule="evenodd" d="M701.758 -1.93031H695.807C691.677 1.45143 697.463 10.3395 694.129 16.8096C704.561 6.36102 701.758 -1.93031 701.758 -1.93031Z" fill="white"/>
<path fill-rule="evenodd" clip-rule="evenodd" d="M699.729 -1.93016H706.55C711.965 1.64435 701.953 7.86004 705.287 14.3328C702.16 10.7152 700.153 8.62549 701.066 6.28976" fill="white"/>
<path fill-rule="evenodd" clip-rule="evenodd" d="M697.957 -1.93021H688.191C688.191 -1.93021 685.22 5.71484 691.651 10.0503C696.378 6.82034 694.839 6.12098 694.839 6.12098" fill="white"/>
<path fill-rule="evenodd" clip-rule="evenodd" d="M718.686 -1.93027H712.017C707.887 1.45146 714.668 12.4537 711.33 18.928C721.757 8.47523 718.686 -1.93027 718.686 -1.93027Z" fill="white"/>
<path fill-rule="evenodd" clip-rule="evenodd" d="M716.658 -1.93031H724.014C728.145 1.45143 719.958 7.97907 723.297 14.4534C721.069 11.8755 719.62 8.98812 718.604 7.37637" fill="white"/>
<path fill-rule="evenodd" clip-rule="evenodd" d="M720.249 -1.93018H729.361C729.361 -1.93018 734.698 0.752258 727.458 11.6521C727.272 8.24779 726.265 5.63297 724.721 3.12085" fill="white"/>
<path fill-rule="evenodd" clip-rule="evenodd" d="M684.138 15.8132C681.188 12.8581 677.88 2.11808 678.935 -1.91759L680.479 -1.92169L680.475 -1.93195L684.138 -1.92785L687.801 -1.93195L687.797 -1.92169L689.341 -1.91759C690.401 2.12039 687.083 12.8585 684.138 15.8132Z" fill="white"/>
<path fill-rule="evenodd" clip-rule="evenodd" d="M663.081 -1.93036H673.954C673.954 -1.93036 676.146 5.65327 669.719 9.99292C668.396 8.59222 667.527 7.26948 666.96 6.119" fill="white"/>
<path fill-rule="evenodd" clip-rule="evenodd" d="M701.833 -1.93031H712.706C712.706 -1.93031 714.453 6.70332 708.026 11.043C706.702 9.64227 705.353 8.19647 705.271 6.11905" fill="white"/>
<path fill-rule="evenodd" clip-rule="evenodd" d="M1377.76 -1.93031H1371.81C1367.68 1.45143 1372.3 10.3395 1368.96 16.8096C1379.38 6.36102 1377.76 -1.93031 1377.76 -1.93031Z" fill="white"/>
<path fill-rule="evenodd" clip-rule="evenodd" d="M1375.73 -1.93039H1382.13C1386.26 1.45135 1379.24 6.85286 1382.57 13.3235C1379.44 9.70592 1377.65 7.69601 1376.64 5.45689" fill="white"/>
<path fill-rule="evenodd" clip-rule="evenodd" d="M1373.96 -1.93036H1364.19C1364.19 -1.93036 1360.89 5.65327 1367.32 9.99292C1368.64 8.59222 1369.51 7.26948 1370.08 6.119" fill="white"/>
<path fill-rule="evenodd" clip-rule="evenodd" d="M1395.76 -1.93027H1388.02C1383.89 1.45146 1389.59 11.8079 1386.26 18.2822C1396.68 7.83158 1395.76 -1.93027 1395.76 -1.93027Z" fill="white"/>
<path fill-rule="evenodd" clip-rule="evenodd" d="M1364.36 6.78532C1363.41 10.3024 1362.42 14.1679 1364.05 17.3284C1353.62 6.87982 1358.91 -1.93073 1358.91 -1.93073H1364.19" fill="white"/>
<path fill-rule="evenodd" clip-rule="evenodd" d="M1360.01 -1.93024H1353.62C1349.49 1.45149 1356.51 7.56491 1353.17 14.0371C1355.31 11.568 1356.82 9.13371 1357.89 7.57698" fill="white"/>
<path fill-rule="evenodd" clip-rule="evenodd" d="M1356.42 -1.93039H1347.74C1347.74 -1.93039 1343.58 -0.556357 1349.21 11.4141C1349.4 8.00975 1350.94 5.63276 1352.48 3.12064" fill="white"/>
<path fill-rule="evenodd" clip-rule="evenodd" d="M1416.41 -1.93031H1410.46C1406.33 1.45143 1412.12 10.3395 1408.79 16.8096C1419.22 6.36102 1416.41 -1.93031 1416.41 -1.93031Z" fill="white"/>
<path fill-rule="evenodd" clip-rule="evenodd" d="M1414.39 -1.93016H1421.21C1426.62 1.64435 1416.61 7.86004 1419.94 14.3328C1416.82 10.7152 1414.81 8.62549 1415.72 6.28976" fill="white"/>
<path fill-rule="evenodd" clip-rule="evenodd" d="M1412.61 -1.93021H1402.85C1402.85 -1.93021 1399.88 5.71484 1406.31 10.0503C1411.04 6.82034 1409.5 6.12098 1409.5 6.12098" fill="white"/>
<path fill-rule="evenodd" clip-rule="evenodd" d="M1433.34 -1.93027H1426.67C1422.54 1.45146 1429.32 12.4537 1425.99 18.928C1436.41 8.47523 1433.34 -1.93027 1433.34 -1.93027Z" fill="white"/>
<path fill-rule="evenodd" clip-rule="evenodd" d="M1431.31 -1.93031H1438.67C1442.8 1.45143 1434.61 7.97907 1437.95 14.4534C1435.73 11.8755 1434.28 8.98812 1433.26 7.37637" fill="white"/>
<path fill-rule="evenodd" clip-rule="evenodd" d="M1434.9 -1.93018H1444.02C1444.02 -1.93018 1449.35 0.752258 1442.11 11.6521C1441.93 8.24779 1440.92 5.63297 1439.38 3.12085" fill="white"/>
<path fill-rule="evenodd" clip-rule="evenodd" d="M1398.79 15.8132C1395.85 12.8581 1392.54 2.11808 1393.59 -1.91759L1395.14 -1.92169L1395.13 -1.93195L1398.79 -1.92785L1402.46 -1.93195L1402.45 -1.92169L1404 -1.91759C1405.06 2.12039 1401.74 12.8585 1398.79 15.8132Z" fill="white"/>
<path fill-rule="evenodd" clip-rule="evenodd" d="M1377.74 -1.93036H1388.61C1388.61 -1.93036 1390.8 5.65327 1384.38 9.99292C1383.05 8.59222 1382.18 7.26948 1381.62 6.119" fill="white"/>
<path fill-rule="evenodd" clip-rule="evenodd" d="M1416.49 -1.93031H1427.36C1427.36 -1.93031 1429.11 6.70332 1422.68 11.043C1421.36 9.64227 1420.01 8.19647 1419.93 6.11905" fill="white"/>
</g>
</g>
<defs>
<clipPath id="clip0_57_2167">
<rect width="1440" height="312" fill="white"/>
</clipPath>
<clipPath id="clip1_57_2167">
<rect width="232.913" height="508.605" fill="white" transform="translate(1027 356.611) rotate(-72.8952)"/>
</clipPath>
<clipPath id="clip2_57_2167">
<rect width="232.913" height="508.605" fill="white" transform="translate(81 382.611) rotate(-72.8952)"/>
</clipPath>
<clipPath id="clip3_57_2167">
<rect width="1452" height="21" fill="white" transform="matrix(1 0 0 -1 -6 19)"/>
</clipPath>
</defs>
</svg>
