<svg width="800" height="62" viewBox="0 0 800 62" fill="none" xmlns="http://www.w3.org/2000/svg">
<path d="M31.7575 36.144C30.3922 36.144 29.2402 35.6533 28.3015 34.672C27.3202 33.7333 26.8295 32.6027 26.8295 31.28C26.8295 29.9147 27.3202 28.7413 28.3015 27.76C29.2402 26.8213 30.3922 26.352 31.7575 26.352H57.6135C58.9362 26.352 60.0882 26.8213 61.0695 27.76C62.0082 28.7413 62.4775 29.9147 62.4775 31.28C62.4775 39.728 59.4695 46.96 53.4535 52.976C47.4802 58.992 40.2482 62 31.7575 62C23.2668 62 16.0135 58.992 9.9975 52.976C3.9815 46.96 0.9735 39.728 0.9735 31.28C0.9735 22.7467 3.9815 15.472 9.9975 9.456C16.0135 3.48266 23.2668 0.495998 31.7575 0.495998C37.1762 0.495998 42.2535 1.84 46.9895 4.528C51.7255 7.216 55.4802 10.928 58.2535 15.664C58.9362 16.8587 59.1068 18.096 58.7655 19.376C58.4242 20.6987 57.6775 21.7013 56.5255 22.384C55.3735 23.0667 54.1362 23.2373 52.8135 22.896C51.5335 22.5547 50.5522 21.7867 49.8695 20.592C47.9922 17.392 45.4108 14.8533 42.1255 12.976C38.9255 11.1413 35.4695 10.224 31.7575 10.224C25.9548 10.224 21.0055 12.272 16.9095 16.368C12.7708 20.464 10.7015 25.4347 10.7015 31.28C10.7015 37.04 12.7708 41.968 16.9095 46.064C21.0055 50.2027 25.9548 52.272 31.7575 52.272C37.5175 52.272 42.4455 50.2027 46.5415 46.064C49.6562 42.992 51.5335 39.6853 52.1735 36.144H31.7575ZM111.423 34.48C111.423 35.8027 110.932 36.9547 109.951 37.936C109.012 38.8747 107.881 39.344 106.559 39.344C105.193 39.344 104.02 38.8747 103.039 37.936C102.143 36.9547 101.694 35.8027 101.694 34.48C101.694 31.0667 100.479 28.1653 98.0465 25.776C95.6572 23.344 92.7558 22.128 89.3425 22.128C85.9292 22.128 83.0278 23.344 80.6385 25.776C78.2065 28.1653 76.9905 31.0667 76.9905 34.48V57.136C76.9905 58.4587 76.5425 59.5893 75.6465 60.528C74.6652 61.5093 73.4918 62 72.1265 62C70.8038 62 69.6518 61.5093 68.6705 60.528C67.7318 59.5893 67.2625 58.4587 67.2625 57.136V34.48C67.2625 28.3787 69.4172 23.1733 73.7265 18.864C78.0358 14.5547 83.2412 12.4 89.3425 12.4C95.4438 12.4 100.649 14.5547 104.959 18.864C109.268 23.1733 111.423 28.3787 111.423 34.48ZM151.025 48.752C152.092 47.8987 153.286 47.536 154.609 47.664C155.932 47.8347 157.02 48.432 157.873 49.456C158.726 50.48 159.11 51.6747 159.025 53.04C158.897 54.3627 158.3 55.4507 157.233 56.304C154.716 58.1387 151.964 59.5467 148.977 60.528C145.99 61.5093 142.79 62 139.377 62C132.252 62 126.257 59.568 121.393 54.704C116.572 49.8827 114.161 44.0373 114.161 37.168C114.161 30.3413 116.572 24.496 121.393 19.632C126.257 14.8107 132.102 12.4 138.929 12.4C145.798 12.4 151.644 14.8107 156.465 19.632C161.329 24.496 163.761 30.3413 163.761 37.168C163.761 38.5333 163.27 39.6853 162.289 40.624C161.35 41.6053 160.22 42.096 158.897 42.096H124.657C125.169 43.9733 126.385 45.872 128.305 47.792C131.249 50.736 134.94 52.208 139.377 52.208C141.724 52.208 143.857 51.9093 145.777 51.312C147.654 50.7147 149.404 49.8613 151.025 48.752ZM128.305 26.544C126.385 28.464 125.169 30.384 124.657 32.304H153.265C152.753 30.384 151.516 28.464 149.553 26.544C146.652 23.6 143.11 22.128 138.929 22.128C134.79 22.128 131.249 23.6 128.305 26.544ZM203.463 48.752C204.529 47.8987 205.724 47.536 207.047 47.664C208.369 47.8347 209.457 48.432 210.311 49.456C211.164 50.48 211.548 51.6747 211.463 53.04C211.335 54.3627 210.737 55.4507 209.671 56.304C207.153 58.1387 204.401 59.5467 201.415 60.528C198.428 61.5093 195.228 62 191.815 62C184.689 62 178.695 59.568 173.831 54.704C169.009 49.8827 166.599 44.0373 166.599 37.168C166.599 30.3413 169.009 24.496 173.831 19.632C178.695 14.8107 184.54 12.4 191.367 12.4C198.236 12.4 204.081 14.8107 208.903 19.632C213.767 24.496 216.199 30.3413 216.199 37.168C216.199 38.5333 215.708 39.6853 214.727 40.624C213.788 41.6053 212.657 42.096 211.335 42.096H177.095C177.607 43.9733 178.823 45.872 180.743 47.792C183.687 50.736 187.377 52.208 191.815 52.208C194.161 52.208 196.295 51.9093 198.215 51.312C200.092 50.7147 201.841 49.8613 203.463 48.752ZM180.743 26.544C178.823 28.464 177.607 30.384 177.095 32.304H205.703C205.191 30.384 203.953 28.464 201.991 26.544C199.089 23.6 195.548 22.128 191.367 22.128C187.228 22.128 183.687 23.6 180.743 26.544ZM270.236 57.072C270.236 58.4373 269.745 59.5893 268.764 60.528C267.825 61.5093 266.695 62 265.372 62C264.007 62 262.855 61.5093 261.916 60.528C260.977 59.5893 260.508 58.4373 260.508 57.072V37.168C260.508 33.0293 259.015 29.488 256.028 26.544C253.127 23.6 249.585 22.128 245.404 22.128C241.265 22.128 237.724 23.6 234.78 26.544C231.836 29.488 230.364 33.0293 230.364 37.168V57.072C230.364 58.4373 229.895 59.5893 228.956 60.528C228.017 61.5093 226.865 62 225.5 62C224.177 62 223.025 61.5093 222.044 60.528C221.105 59.5893 220.636 58.4373 220.636 57.072V37.168C220.636 30.3413 223.047 24.496 227.868 19.632C232.732 14.8107 238.577 12.4 245.404 12.4C252.273 12.4 258.119 14.8107 262.94 19.632C267.804 24.496 270.236 30.3413 270.236 37.168V57.072ZM322.695 0.495998C331.186 0.495998 338.418 3.48266 344.391 9.456C350.407 15.472 353.415 22.7467 353.415 31.28C353.415 39.728 350.407 46.96 344.391 52.976C338.418 58.992 331.186 62 322.695 62C314.204 62 306.951 58.992 300.935 52.976C294.919 46.96 291.911 39.728 291.911 31.28C291.911 22.7467 294.919 15.472 300.935 9.456C306.951 3.48266 314.204 0.495998 322.695 0.495998ZM337.543 16.368C333.404 12.272 328.455 10.224 322.695 10.224C316.892 10.224 311.943 12.272 307.847 16.368C303.708 20.464 301.639 25.4347 301.639 31.28C301.639 37.0827 303.708 42.032 307.847 46.128C311.943 50.224 316.892 52.272 322.695 52.272C328.455 52.272 333.404 50.224 337.543 46.128C341.639 42.032 343.687 37.0827 343.687 31.28C343.687 25.4347 341.639 20.464 337.543 16.368ZM381.304 12.4C388.173 12.4 394.019 14.8107 398.84 19.632C403.704 24.496 406.136 30.3413 406.136 37.168V57.072C406.136 58.4373 405.645 59.5893 404.664 60.528C403.725 61.5093 402.595 62 401.272 62C399.907 62 398.755 61.5093 397.816 60.528C396.877 59.5893 396.408 58.4373 396.408 57.072V57.008C392.653 60.336 387.619 62 381.304 62C374.477 62 368.632 59.568 363.768 54.704C358.947 49.8827 356.536 44.0373 356.536 37.168C356.536 30.3413 358.947 24.496 363.768 19.632C368.632 14.8107 374.477 12.4 381.304 12.4ZM391.928 26.544C389.027 23.6 385.485 22.128 381.304 22.128C377.165 22.128 373.624 23.6 370.68 26.544C367.736 29.488 366.264 33.0293 366.264 37.168C366.264 41.3067 367.736 44.848 370.68 47.792C373.624 50.736 377.165 52.208 381.304 52.208C385.485 52.208 389.027 50.736 391.928 47.792C394.915 44.848 396.408 41.3067 396.408 37.168C396.408 33.0293 394.915 29.488 391.928 26.544ZM452.77 19.696C453.709 20.592 454.199 21.7013 454.242 23.024C454.242 24.2613 453.794 25.3707 452.898 26.352C452.002 27.2907 450.914 27.7813 449.634 27.824C448.354 27.824 447.245 27.376 446.306 26.48C444.727 25.0293 442.85 23.8987 440.674 23.088C438.327 22.2773 436.087 21.8507 433.954 21.808V21.872H432.994C429.154 21.872 425.975 22.5333 423.458 23.856C421.495 24.9227 420.514 26.1813 420.514 27.632C420.557 29.3813 421.389 30.5973 423.01 31.28C425.015 32.1333 428.386 32.56 433.122 32.56C439.394 32.6453 443.831 33.1787 446.434 34.16C452.066 36.2507 454.882 40.4533 454.882 46.768C454.882 51.5893 452.599 55.408 448.034 58.224C444.066 60.656 439.138 61.9147 433.25 62C429.367 62 425.677 61.3813 422.178 60.144C418.637 58.8213 415.522 56.944 412.834 54.512C411.895 53.6587 411.405 52.5707 411.362 51.248C411.277 49.9253 411.682 48.7947 412.578 47.856C413.431 46.9173 414.519 46.4053 415.842 46.32C417.165 46.32 418.295 46.7467 419.234 47.6C420.983 49.2213 423.031 50.4587 425.378 51.312C427.853 52.1653 430.455 52.592 433.186 52.592C437.282 52.5493 440.567 51.76 443.042 50.224C444.621 49.2427 445.41 48.0907 445.41 46.768C445.41 44.8053 444.663 43.5467 443.17 42.992C441.549 42.352 438.178 42.0107 433.058 41.968C427.085 41.9253 422.541 41.2853 419.426 40.048C413.879 37.744 411.106 33.6053 411.106 27.632C411.149 22.4693 413.751 18.4587 418.914 15.6C422.882 13.4667 427.597 12.4 433.058 12.4C436.941 12.4427 440.546 13.0613 443.874 14.256C447.287 15.4933 450.253 17.3067 452.77 19.696ZM471.15 57.072C471.15 58.4373 470.681 59.5893 469.742 60.528C468.803 61.5093 467.651 62 466.286 62C464.963 62 463.811 61.5093 462.83 60.528C461.891 59.5893 461.422 58.4373 461.422 57.072V17.264C461.422 15.8987 461.891 14.7467 462.83 13.808C463.811 12.8693 464.963 12.4 466.286 12.4C467.651 12.4 468.803 12.8693 469.742 13.808C470.681 14.7467 471.15 15.8987 471.15 17.264V57.072ZM466.35 0.431995C467.673 0.431995 468.803 0.922662 469.742 1.904C470.723 2.84266 471.214 3.99466 471.214 5.36C471.214 6.72533 470.723 7.89866 469.742 8.88C468.803 9.81866 467.673 10.288 466.35 10.288C464.985 10.288 463.833 9.81866 462.894 8.88C461.955 7.89866 461.486 6.72533 461.486 5.36C461.486 3.99466 461.955 2.84266 462.894 1.904C463.833 0.922662 464.985 0.431995 466.35 0.431995ZM519.458 19.696C520.396 20.592 520.887 21.7013 520.93 23.024C520.93 24.2613 520.482 25.3707 519.586 26.352C518.69 27.2907 517.602 27.7813 516.322 27.824C515.042 27.824 513.932 27.376 512.994 26.48C511.415 25.0293 509.538 23.8987 507.362 23.088C505.015 22.2773 502.775 21.8507 500.642 21.808V21.872H499.682C495.842 21.872 492.663 22.5333 490.146 23.856C488.183 24.9227 487.202 26.1813 487.202 27.632C487.244 29.3813 488.076 30.5973 489.698 31.28C491.703 32.1333 495.074 32.56 499.81 32.56C506.082 32.6453 510.519 33.1787 513.122 34.16C518.754 36.2507 521.57 40.4533 521.57 46.768C521.57 51.5893 519.287 55.408 514.722 58.224C510.754 60.656 505.826 61.9147 499.938 62C496.055 62 492.364 61.3813 488.866 60.144C485.324 58.8213 482.21 56.944 479.522 54.512C478.583 53.6587 478.092 52.5707 478.049 51.248C477.964 49.9253 478.37 48.7947 479.266 47.856C480.119 46.9173 481.207 46.4053 482.53 46.32C483.852 46.32 484.983 46.7467 485.922 47.6C487.671 49.2213 489.719 50.4587 492.066 51.312C494.54 52.1653 497.143 52.592 499.874 52.592C503.97 52.5493 507.255 51.76 509.729 50.224C511.308 49.2427 512.097 48.0907 512.097 46.768C512.097 44.8053 511.351 43.5467 509.858 42.992C508.236 42.352 504.866 42.0107 499.746 41.968C493.772 41.9253 489.228 41.2853 486.114 40.048C480.567 37.744 477.794 33.6053 477.794 27.632C477.836 22.4693 480.439 18.4587 485.602 15.6C489.57 13.4667 494.284 12.4 499.746 12.4C503.628 12.4427 507.234 13.0613 510.562 14.256C513.975 15.4933 516.94 17.3067 519.458 19.696ZM595.668 57.136C595.668 58.5013 595.177 59.6533 594.196 60.592C593.3 61.5307 592.169 62 590.804 62C589.439 62 588.287 61.5307 587.348 60.592C586.367 59.6533 585.876 58.5013 585.876 57.136V36.144H553.364V57.136C553.364 58.5013 552.895 59.6533 551.956 60.592C551.017 61.5307 549.865 62 548.5 62C547.177 62 546.025 61.5307 545.044 60.592C544.105 59.6533 543.636 58.5013 543.636 57.136V5.36C543.636 3.99466 544.105 2.84266 545.044 1.904C546.025 0.965331 547.177 0.495998 548.5 0.495998C549.865 0.495998 551.017 0.965331 551.956 1.904C552.895 2.84266 553.364 3.99466 553.364 5.36V26.352H585.876V5.36C585.876 3.99466 586.367 2.84266 587.348 1.904C588.287 0.965331 589.439 0.495998 590.804 0.495998C592.169 0.495998 593.3 0.965331 594.196 1.904C595.177 2.84266 595.668 3.99466 595.668 5.36V57.136ZM637.213 48.752C638.279 47.8987 639.474 47.536 640.797 47.664C642.119 47.8347 643.207 48.432 644.061 49.456C644.914 50.48 645.298 51.6747 645.213 53.04C645.085 54.3627 644.487 55.4507 643.421 56.304C640.903 58.1387 638.151 59.5467 635.165 60.528C632.178 61.5093 628.978 62 625.565 62C618.439 62 612.445 59.568 607.581 54.704C602.759 49.8827 600.349 44.0373 600.349 37.168C600.349 30.3413 602.759 24.496 607.581 19.632C612.445 14.8107 618.29 12.4 625.117 12.4C631.986 12.4 637.831 14.8107 642.653 19.632C647.517 24.496 649.949 30.3413 649.949 37.168C649.949 38.5333 649.458 39.6853 648.477 40.624C647.538 41.6053 646.407 42.096 645.085 42.096H610.845C611.357 43.9733 612.573 45.872 614.493 47.792C617.437 50.736 621.127 52.208 625.565 52.208C627.911 52.208 630.045 51.9093 631.965 51.312C633.842 50.7147 635.591 49.8613 637.213 48.752ZM614.493 26.544C612.573 28.464 611.357 30.384 610.845 32.304H639.453C638.941 30.384 637.703 28.464 635.741 26.544C632.839 23.6 629.298 22.128 625.117 22.128C620.978 22.128 617.437 23.6 614.493 26.544ZM698.61 34.48C698.61 35.8027 698.119 36.9547 697.138 37.936C696.199 38.8747 695.069 39.344 693.746 39.344C692.381 39.344 691.207 38.8747 690.226 37.936C689.33 36.9547 688.882 35.8027 688.882 34.48C688.882 31.0667 687.666 28.1653 685.234 25.776C682.845 23.344 679.943 22.128 676.53 22.128C673.117 22.128 670.215 23.344 667.826 25.776C665.394 28.1653 664.178 31.0667 664.178 34.48V57.136C664.178 58.4587 663.73 59.5893 662.834 60.528C661.853 61.5093 660.679 62 659.314 62C657.991 62 656.839 61.5093 655.858 60.528C654.919 59.5893 654.45 58.4587 654.45 57.136V34.48C654.45 28.3787 656.605 23.1733 660.914 18.864C665.223 14.5547 670.429 12.4 676.53 12.4C682.631 12.4 687.837 14.5547 692.146 18.864C696.455 23.1733 698.61 28.3787 698.61 34.48ZM727.717 62C720.89 62 715.045 59.568 710.181 54.704C705.359 49.8827 702.949 44.0373 702.949 37.168V5.296C702.949 3.97333 703.418 2.82133 704.357 1.84C705.338 0.901329 706.49 0.431995 707.812 0.431995C709.178 0.431995 710.33 0.922662 711.269 1.904C712.207 2.84266 712.677 3.97333 712.677 5.296V17.392C716.431 14.064 721.445 12.4 727.717 12.4C734.586 12.4 740.431 14.8107 745.253 19.632C750.117 24.496 752.549 30.3413 752.549 37.168C752.549 44.0373 750.117 49.8827 745.253 54.704C740.431 59.568 734.586 62 727.717 62ZM717.093 47.792C720.037 50.736 723.578 52.208 727.717 52.208C731.898 52.208 735.439 50.736 738.341 47.792C741.327 44.848 742.821 41.3067 742.821 37.168C742.821 33.0293 741.327 29.488 738.341 26.544C735.439 23.6 731.898 22.128 727.717 22.128C723.578 22.128 720.037 23.6 717.093 26.544C714.149 29.488 712.677 33.0293 712.677 37.168C712.677 41.3067 714.149 44.848 717.093 47.792ZM797.583 19.696C798.521 20.592 799.012 21.7013 799.055 23.024C799.055 24.2613 798.607 25.3707 797.711 26.352C796.815 27.2907 795.727 27.7813 794.447 27.824C793.167 27.824 792.057 27.376 791.119 26.48C789.54 25.0293 787.663 23.8987 785.487 23.088C783.14 22.2773 780.9 21.8507 778.767 21.808V21.872H777.807C773.967 21.872 770.788 22.5333 768.271 23.856C766.308 24.9227 765.327 26.1813 765.327 27.632C765.369 29.3813 766.201 30.5973 767.823 31.28C769.828 32.1333 773.199 32.56 777.935 32.56C784.207 32.6453 788.644 33.1787 791.247 34.16C796.879 36.2507 799.695 40.4533 799.695 46.768C799.695 51.5893 797.412 55.408 792.847 58.224C788.879 60.656 783.951 61.9147 778.063 62C774.18 62 770.489 61.3813 766.991 60.144C763.449 58.8213 760.335 56.944 757.647 54.512C756.708 53.6587 756.217 52.5707 756.174 51.248C756.089 49.9253 756.495 48.7947 757.391 47.856C758.244 46.9173 759.332 46.4053 760.655 46.32C761.977 46.32 763.108 46.7467 764.047 47.6C765.796 49.2213 767.844 50.4587 770.191 51.312C772.665 52.1653 775.268 52.592 777.999 52.592C782.095 52.5493 785.38 51.76 787.854 50.224C789.433 49.2427 790.222 48.0907 790.222 46.768C790.222 44.8053 789.476 43.5467 787.983 42.992C786.361 42.352 782.991 42.0107 777.871 41.968C771.897 41.9253 767.353 41.2853 764.239 40.048C758.692 37.744 755.919 33.6053 755.919 27.632C755.961 22.4693 758.564 18.4587 763.727 15.6C767.695 13.4667 772.409 12.4 777.871 12.4C781.753 12.4427 785.359 13.0613 788.687 14.256C792.1 15.4933 795.065 17.3067 797.583 19.696Z" fill="white"/>
</svg>
