<svg width="239" height="72" viewBox="0 0 239 72" fill="none" xmlns="http://www.w3.org/2000/svg">
<path d="M33.2216 62.5678C20.3011 62.5678 9.78613 52.057 9.78613 39.1323C9.78613 26.2076 20.2969 15.6968 33.2216 15.6968C37.0552 15.6968 40.8635 16.6446 44.2295 18.4393C45.8009 19.2734 46.3949 21.2281 45.5565 22.7953C44.7224 24.3666 42.7719 24.9606 41.2006 24.1223C38.7656 22.8247 36.0063 22.1381 33.2216 22.1381C23.8525 22.1381 16.2274 29.7589 16.2274 39.1323C16.2274 48.5056 23.8525 56.1265 33.2216 56.1265C41.4912 56.1265 48.4001 50.1907 49.9083 42.355H33.2216C31.4438 42.355 30.0031 40.9143 30.0031 39.1365C30.0031 37.3587 31.4438 35.9179 33.2216 35.9179H53.4344C55.2121 35.9179 56.6529 37.3587 56.6529 39.1365C56.6529 52.057 46.1421 62.572 33.2174 62.572L33.2216 62.5678Z" fill="#006838"/>
<path fill-rule="evenodd" clip-rule="evenodd" d="M52.3768 11.7116L48.143 17.8622C54.8666 19.6442 58.5527 15.2967 59.2099 4.81958C48.7412 5.56524 44.4232 9.29351 46.2684 16.0002L52.381 11.7116H52.3768Z" fill="#81BA45"/>
<path fill-rule="evenodd" clip-rule="evenodd" d="M56.5263 22.9513L50.7717 24.2615C53.729 28.8955 58.203 28.3436 64.1893 22.5974C57.6974 17.4284 53.1898 17.2852 50.6748 22.1762L56.5263 22.9513Z" fill="#81BA45"/>
<path fill-rule="evenodd" clip-rule="evenodd" d="M41.1036 7.66744L39.8439 13.4347C35.1804 10.5195 35.6986 6.04132 41.39 0.000244141C46.618 6.44574 46.7992 10.9492 41.9335 13.5105L41.1078 7.66322L41.1036 7.66744Z" fill="#81BA45"/>
<path fill-rule="evenodd" clip-rule="evenodd" d="M45.3203 18.8354C46.7063 20.2088 46.7189 22.4499 45.3414 23.8359C43.968 25.2219 41.7268 25.2346 40.3409 23.857C38.9549 22.4836 38.9422 20.2425 40.3198 18.8565C41.6974 17.4705 43.9343 17.4578 45.3203 18.8354Z" fill="#E8AA27"/>
<path d="M33.5503 71.9999C15.0521 71.9999 0 56.9478 0 38.4497C0 27.644 5.25329 17.4365 14.0537 11.1427C15.3639 10.2074 17.1838 10.5065 18.119 11.8167C19.0542 13.1269 18.7509 14.9468 17.445 15.882C10.1696 21.0847 5.82622 29.5186 5.82622 38.4497C5.82622 53.7377 18.2622 66.1737 33.5503 66.1737C48.8383 66.1737 61.2744 53.7377 61.2744 38.4497C61.2744 36.8404 62.5803 35.5344 64.1896 35.5344C65.7988 35.5344 67.1048 36.8404 67.1048 38.4497C67.1048 56.952 52.0527 71.9999 33.5545 71.9999H33.5503Z" fill="#81BA45"/>
<path d="M91.9811 25.2535C91.5893 25.2535 91.2565 25.1145 90.9869 24.828C90.7046 24.5584 90.5614 24.234 90.5614 23.8507C90.5614 23.4673 90.7004 23.1177 90.9869 22.8354C91.2734 22.5531 91.5893 22.431 91.9811 22.431H99.4292C99.8084 22.431 100.141 22.5658 100.423 22.8354C100.693 23.1177 100.828 23.4547 100.828 23.8507C100.828 26.2856 99.96 28.3667 98.2286 30.0982C96.5098 31.8296 94.4245 32.6974 91.9811 32.6974C89.5377 32.6974 87.4482 31.8296 85.7125 30.0982C83.9811 28.3667 83.1133 26.2814 83.1133 23.8507C83.1133 21.4199 83.9811 19.2967 85.7125 17.5653C87.444 15.8465 89.5335 14.9871 91.9811 14.9871C93.5398 14.9871 95.0059 15.3746 96.3666 16.1498C97.7315 16.9249 98.81 17.995 99.6104 19.3557C99.8084 19.7011 99.8547 20.055 99.7578 20.4257C99.6609 20.8091 99.4461 21.0955 99.1133 21.2935C98.7805 21.4915 98.4266 21.5379 98.0432 21.441C97.6725 21.3441 97.3903 21.1208 97.1965 20.7754C96.6572 19.8528 95.9116 19.124 94.9679 18.5805C94.0454 18.0539 93.0511 17.7885 91.9811 17.7885C90.3086 17.7885 88.8847 18.3783 87.7052 19.5579C86.513 20.7375 85.919 22.1698 85.919 23.8507C85.919 25.5316 86.5172 26.9302 87.7052 28.1098C88.8847 29.302 90.3086 29.896 91.9811 29.896C93.6536 29.896 95.0606 29.302 96.2402 28.1098C97.1375 27.2251 97.6767 26.273 97.8621 25.2535H91.9811Z" fill="#81BA45"/>
<path d="M104.994 31.2986C104.994 31.6777 104.859 32.0063 104.59 32.2759C104.32 32.5582 103.987 32.7014 103.595 32.7014C103.204 32.7014 102.883 32.5666 102.601 32.297C102.332 32.0147 102.197 31.6819 102.197 31.3028V22.1232C102.197 20.1432 102.892 18.4623 104.278 17.0721C105.664 15.6819 107.362 14.97 109.329 14.97C111.296 14.97 112.99 15.6693 114.38 17.0721C115.783 18.4623 116.482 20.1432 116.482 22.1232C116.482 24.1032 115.783 25.7672 114.38 27.1532C112.99 28.5561 111.309 29.2554 109.329 29.2554C107.509 29.2554 106.068 28.7751 104.998 27.8188V31.3028L104.994 31.2986ZM106.266 19.0395C105.42 19.8862 104.994 20.9142 104.994 22.119C104.994 23.3238 105.42 24.3307 106.266 25.1775C107.113 26.0116 108.133 26.4286 109.325 26.4286C110.517 26.4286 111.549 26.0116 112.383 25.1775C113.243 24.3307 113.672 23.3112 113.672 22.119C113.672 20.9268 113.243 19.8905 112.383 19.0395C111.549 18.2054 110.53 17.7883 109.325 17.7883C108.12 17.7883 107.113 18.2054 106.266 19.0395ZM108.238 26.7657L113.344 30.1021C113.651 30.3212 113.841 30.6287 113.917 31.0247C113.967 31.4039 113.904 31.7072 113.731 31.9263C113.449 32.3307 113.116 32.5582 112.737 32.6087C112.358 32.6803 112.012 32.6045 111.705 32.3686L106.822 29.049C106.085 28.5687 105.942 27.9621 106.397 27.2248C106.877 26.4497 107.492 26.298 108.242 26.7657H108.238Z" fill="#81BA45"/>
<path d="M128.308 22.4307C128.687 22.4307 129.02 22.574 129.302 22.8562C129.571 23.1132 129.706 23.446 129.706 23.8504C129.706 24.2296 129.571 24.5582 129.302 24.8278C129.032 25.0974 128.687 25.2533 128.308 25.2533H120.548V29.8999H128.973C129.352 29.8999 129.685 30.0347 129.967 30.3044C130.237 30.574 130.372 30.9068 130.372 31.2986C130.372 31.6903 130.237 32.0232 129.967 32.2928C129.685 32.5624 129.352 32.6972 128.973 32.6972H119.149C118.77 32.6972 118.437 32.5624 118.155 32.2928C117.885 32.0232 117.75 31.6903 117.75 31.2986V16.3854C117.75 15.9937 117.885 15.6609 118.155 15.3912C118.437 15.1216 118.77 14.9868 119.149 14.9868H128.973C129.352 14.9868 129.685 15.1216 129.967 15.3912C130.237 15.6609 130.372 15.9937 130.372 16.3854C130.372 16.7772 130.237 17.11 129.967 17.3797C129.685 17.6493 129.352 17.7841 128.973 17.7841H120.548V22.4307H128.308Z" fill="#81BA45"/>
<path d="M142.15 22.4307C142.53 22.4307 142.862 22.574 143.145 22.8562C143.414 23.1132 143.549 23.446 143.549 23.8504C143.549 24.2296 143.414 24.5582 143.145 24.8278C142.875 25.0974 142.53 25.2533 142.15 25.2533H134.391V29.8999H142.816C143.195 29.8999 143.528 30.0347 143.81 30.3044C144.08 30.574 144.215 30.9068 144.215 31.2986C144.215 31.6903 144.08 32.0232 143.81 32.2928C143.528 32.5624 143.195 32.6972 142.816 32.6972H132.992C132.613 32.6972 132.28 32.5624 131.998 32.2928C131.728 32.0232 131.593 31.6903 131.593 31.2986V16.3854C131.593 15.9937 131.728 15.6609 131.998 15.3912C132.28 15.1216 132.613 14.9868 132.992 14.9868H142.816C143.195 14.9868 143.528 15.1216 143.81 15.3912C144.08 15.6609 144.215 15.9937 144.215 16.3854C144.215 16.7772 144.08 17.11 143.81 17.3797C143.528 17.6493 143.195 17.7841 142.816 17.7841H134.391V22.4307H142.15Z" fill="#81BA45"/>
<path d="M148.234 31.2985C148.234 31.6903 148.099 32.0231 147.829 32.2927C147.56 32.5623 147.227 32.6971 146.835 32.6971C146.443 32.6971 146.123 32.5623 145.841 32.2927C145.571 32.0231 145.437 31.6903 145.437 31.2985V18.2137C145.437 17.2785 145.799 16.4949 146.523 15.8546C146.561 15.8293 146.595 15.804 146.633 15.783C147.282 15.2564 148.044 14.991 148.916 14.991C149.666 14.991 150.336 15.189 150.926 15.5807C151.541 15.9852 151.987 16.5413 152.27 17.2406L156.933 29.2764C157.03 29.5207 157.148 29.6934 157.283 29.7903C157.38 29.8619 157.536 29.8999 157.742 29.8999C157.986 29.8999 158.188 29.8325 158.349 29.6977C158.399 29.6597 158.42 29.5586 158.42 29.3859V16.3896C158.42 15.9978 158.555 15.665 158.825 15.3954C159.094 15.1258 159.427 14.991 159.819 14.991C160.211 14.991 160.531 15.1258 160.813 15.3954C161.083 15.665 161.217 15.9978 161.217 16.3896V29.6218C161.217 30.5444 160.838 31.3069 160.076 31.9051C159.414 32.4317 158.631 32.6971 157.734 32.6971C156.933 32.6971 156.015 32.3264 154.97 31.5934H154.987C154.865 31.4965 154.65 31.0836 154.342 30.3591C153.849 29.1289 153.07 27.111 152 24.2969C151.031 21.6808 150.247 19.6713 149.658 18.2685C149.594 18.121 149.498 18.0031 149.363 17.9188C149.241 17.8346 149.085 17.7882 148.904 17.7882C148.693 17.7882 148.529 17.8388 148.407 17.9357L148.369 17.9525C148.272 18.0368 148.221 18.1632 148.221 18.3232V31.2985H148.234Z" fill="#81BA45"/>
<path d="M182.61 17.565C184.341 19.2965 185.209 21.3944 185.209 23.8504C185.209 26.3065 184.341 28.3665 182.61 30.0979C180.891 31.8294 178.806 32.6972 176.362 32.6972C173.919 32.6972 171.83 31.8294 170.094 30.0979C168.362 28.3665 167.495 26.2812 167.495 23.8504C167.495 21.4197 168.362 19.2965 170.094 17.565C171.825 15.8462 173.915 14.9868 176.362 14.9868C178.81 14.9868 180.891 15.8462 182.61 17.565ZM176.362 17.7883C174.69 17.7883 173.266 18.3781 172.087 19.5576C170.894 20.7372 170.3 22.1695 170.3 23.8504C170.3 25.5313 170.899 26.9468 172.087 28.1264C173.266 29.3059 174.69 29.8957 176.362 29.8957C178.035 29.8957 179.446 29.3059 180.638 28.1264C181.818 26.9468 182.408 25.5229 182.408 23.8504C182.408 22.178 181.818 20.7372 180.638 19.5576C179.446 18.3781 178.022 17.7883 176.362 17.7883Z" fill="#81BA45"/>
<path d="M199.751 27.2418H189.375V31.2986C189.375 31.6904 189.241 32.0232 188.971 32.2928C188.701 32.5624 188.369 32.6973 187.977 32.6973C187.585 32.6973 187.265 32.5624 186.983 32.2928C186.713 32.0232 186.578 31.6904 186.578 31.2986V22.9658C186.578 20.7668 187.366 18.8879 188.937 17.325C190.496 15.7662 192.379 14.9827 194.578 14.9827C196.777 14.9827 198.664 15.762 200.236 17.325C201.795 18.8837 202.578 20.7668 202.578 22.9658V31.2986C202.578 31.6904 202.443 32.0232 202.174 32.2928C201.891 32.5624 201.554 32.6973 201.158 32.6973C200.762 32.6973 200.451 32.5624 200.181 32.2928C199.899 32.0232 199.756 31.6904 199.756 31.2986V27.2418H199.751ZM189.371 24.4403H199.747V22.9658C199.747 21.5545 199.237 20.3371 198.218 19.3176C197.211 18.2981 195.994 17.7884 194.57 17.7884C193.146 17.7884 191.92 18.2981 190.9 19.3176C189.881 20.3371 189.371 21.5545 189.371 22.9658V24.4403Z" fill="#81BA45"/>
<path d="M217.222 18.176C217.209 18.5467 217.057 18.8585 216.763 19.1154C216.493 19.3724 216.16 19.4904 215.768 19.4651C215.398 19.4524 215.086 19.305 214.829 19.0228C214.496 18.6647 214.02 18.374 213.392 18.1381C212.706 17.8937 211.922 17.7631 211.05 17.7505C209.795 17.7505 208.75 18.0075 207.916 18.5256C207.179 18.968 206.812 19.5451 206.812 20.2571L206.555 20.017L206.812 20.2739C206.812 21.1081 207.229 21.6852 208.067 22.0054C208.619 22.2034 209.647 22.355 211.147 22.4646C213.422 22.612 214.989 22.8943 215.848 23.3113C217.335 24.0486 218.077 25.4051 218.077 27.385C218.077 29.0196 217.344 30.3298 215.882 31.3113C214.555 32.2213 212.908 32.6805 210.941 32.6931C209.394 32.6931 208.008 32.4066 206.795 31.8253C205.481 31.1849 204.584 30.3003 204.103 29.1712C203.956 28.8132 203.956 28.4593 204.103 28.1012C204.251 27.7558 204.495 27.5114 204.84 27.364C205.199 27.2165 205.552 27.2165 205.911 27.364C206.256 27.5114 206.5 27.7558 206.648 28.1012C206.858 28.5941 207.305 29.0027 207.992 29.3355C208.813 29.7273 209.799 29.9253 210.941 29.9253C212.343 29.9253 213.477 29.6304 214.349 29.0407C214.989 28.5983 215.305 28.0464 215.305 27.3808C215.305 26.5593 214.888 25.9906 214.054 25.6831C213.502 25.4725 212.474 25.3124 210.974 25.2028C208.699 25.0554 207.128 24.7731 206.256 24.3561C204.769 23.6189 204.027 22.2539 204.027 20.2655V20.2487C204.053 18.5046 204.87 17.1397 206.479 16.1581C207.756 15.3703 209.281 14.9785 211.05 14.9785C212.255 14.9785 213.354 15.1639 214.349 15.5304C215.393 15.9095 216.236 16.4572 216.872 17.1691C217.129 17.4388 217.247 17.7716 217.222 18.1634V18.176Z" fill="#81BA45"/>
<path d="M222.661 31.2986C222.661 31.6903 222.526 32.0232 222.256 32.2928C221.987 32.5624 221.654 32.6972 221.262 32.6972C220.87 32.6972 220.55 32.5624 220.268 32.2928C219.998 32.0232 219.863 31.6903 219.863 31.2986V16.3854C219.863 15.9937 219.998 15.6609 220.268 15.3912C220.55 15.1216 220.883 14.9868 221.262 14.9868C221.641 14.9868 221.987 15.1216 222.256 15.3912C222.526 15.6609 222.661 15.9937 222.661 16.3854V31.2986Z" fill="#81BA45"/>
<path d="M237.754 18.176C237.742 18.5467 237.59 18.8585 237.295 19.1154C237.026 19.3724 236.693 19.4904 236.301 19.4651C235.93 19.4524 235.619 19.305 235.362 19.0228C235.029 18.6647 234.553 18.374 233.925 18.1381C233.238 17.8937 232.455 17.7631 231.583 17.7505C230.327 17.7505 229.283 18.0075 228.449 18.5256C227.711 18.968 227.345 19.5451 227.345 20.2571L227.088 20.017L227.345 20.2739C227.345 21.1081 227.762 21.6852 228.6 22.0054C229.152 22.2034 230.18 22.355 231.68 22.4646C233.955 22.612 235.522 22.8943 236.381 23.3113C237.868 24.0486 238.61 25.4051 238.61 27.385C238.61 29.0196 237.877 30.3298 236.415 31.3113C235.088 32.2213 233.441 32.6805 231.473 32.6931C229.927 32.6931 228.541 32.4066 227.328 31.8253C226.014 31.1849 225.116 30.3003 224.636 29.1712C224.489 28.8132 224.489 28.4593 224.636 28.1012C224.783 27.7558 225.028 27.5114 225.373 27.364C225.731 27.2165 226.085 27.2165 226.443 27.364C226.789 27.5114 227.033 27.7558 227.18 28.1012C227.391 28.5941 227.838 29.0027 228.524 29.3355C229.346 29.7273 230.332 29.9253 231.473 29.9253C232.876 29.9253 234.009 29.6304 234.881 29.0407C235.522 28.5983 235.838 28.0464 235.838 27.3808C235.838 26.5593 235.421 25.9906 234.586 25.6831C234.035 25.4725 233.007 25.3124 231.507 25.2028C229.232 25.0554 227.661 24.7731 226.789 24.3561C225.302 23.6189 224.56 22.2539 224.56 20.2655V20.2487C224.585 18.5046 225.403 17.1397 227.012 16.1581C228.288 15.3703 229.813 14.9785 231.583 14.9785C232.788 14.9785 233.887 15.1639 234.881 15.5304C235.926 15.9095 236.769 16.4572 237.405 17.1691C237.662 17.4388 237.78 17.7716 237.754 18.1634V18.176Z" fill="#81BA45"/>
<path d="M98.5614 55.6272C98.5614 56.019 98.4182 56.3518 98.1359 56.6214C97.8789 56.891 97.5503 57.0258 97.1585 57.0258C96.7668 57.0258 96.434 56.891 96.1643 56.6214C95.8821 56.3518 95.7389 56.019 95.7389 55.6272V49.5819H86.3739V55.6272C86.3739 56.019 86.2391 56.3518 85.9695 56.6214C85.6999 56.891 85.3671 57.0258 84.9753 57.0258C84.5835 57.0258 84.2633 56.891 83.9811 56.6214C83.7115 56.3518 83.5767 56.019 83.5767 55.6272V40.7141C83.5767 40.3223 83.7115 39.9895 83.9811 39.7199C84.2633 39.4502 84.5961 39.3154 84.9753 39.3154C85.3544 39.3154 85.6999 39.4502 85.9695 39.7199C86.2391 39.9895 86.3739 40.3223 86.3739 40.7141V46.7593H95.7389V40.7141C95.7389 40.3223 95.8779 39.9895 96.1643 39.7199C96.434 39.4502 96.7668 39.3154 97.1585 39.3154C97.5503 39.3154 97.8789 39.4502 98.1359 39.7199C98.4182 39.9895 98.5614 40.3223 98.5614 40.7141V55.6272Z" fill="#81BA45"/>
<path d="M110.93 46.7635C111.309 46.7635 111.642 46.9067 111.924 47.189C112.194 47.446 112.329 47.7788 112.329 48.1832C112.329 48.5623 112.194 48.8909 111.924 49.1605C111.655 49.4302 111.309 49.586 110.93 49.586H103.17V54.2327H111.596C111.975 54.2327 112.308 54.3675 112.59 54.6371C112.86 54.9067 112.994 55.2395 112.994 55.6313C112.994 56.0231 112.86 56.3559 112.59 56.6255C112.308 56.8951 111.975 57.03 111.596 57.03H101.772C101.393 57.03 101.06 56.8951 100.777 56.6255C100.508 56.3559 100.373 56.0231 100.373 55.6313V40.7182C100.373 40.3264 100.508 39.9936 100.777 39.724C101.06 39.4544 101.393 39.3196 101.772 39.3196H111.596C111.975 39.3196 112.308 39.4544 112.59 39.724C112.86 39.9936 112.994 40.3264 112.994 40.7182C112.994 41.11 112.86 41.4428 112.59 41.7124C112.308 41.982 111.975 42.1168 111.596 42.1168H103.17V46.7635H110.93Z" fill="#81BA45"/>
<path d="M117.009 55.6272C117.009 56.0063 116.874 56.3349 116.605 56.6045C116.335 56.8868 116.002 57.03 115.611 57.03C115.219 57.03 114.899 56.8952 114.616 56.6256C114.347 56.3433 114.212 56.0105 114.212 55.6314V46.4518C114.212 44.4718 114.907 42.791 116.293 41.4007C117.679 40.0105 119.377 39.2986 121.344 39.2986C123.311 39.2986 125.005 39.9979 126.395 41.4007C127.798 42.791 128.497 44.4718 128.497 46.4518C128.497 48.4318 127.798 50.0958 126.395 51.4818C125.005 52.8847 123.324 53.584 121.344 53.584C119.524 53.584 118.083 53.1037 117.013 52.1475V55.6314L117.009 55.6272ZM118.281 43.3723C117.435 44.2191 117.009 45.247 117.009 46.4518C117.009 47.6567 117.435 48.6635 118.281 49.5103C119.128 50.3444 120.148 50.7615 121.34 50.7615C122.532 50.7615 123.564 50.3444 124.398 49.5103C125.258 48.6635 125.687 47.644 125.687 46.4518C125.687 45.2596 125.258 44.2233 124.398 43.3723C123.564 42.5382 122.545 42.1211 121.34 42.1211C120.135 42.1211 119.128 42.5382 118.281 43.3723ZM120.253 51.0943L125.359 54.4308C125.666 54.6498 125.856 54.9574 125.932 55.3533C125.982 55.7325 125.919 56.0358 125.746 56.2549C125.464 56.6593 125.131 56.8868 124.752 56.9373C124.373 57.009 124.028 56.9331 123.72 56.6972L118.837 53.3776C118.1 52.8973 117.957 52.2907 118.412 51.5535C118.892 50.7783 119.507 50.6267 120.257 51.0943H120.253Z" fill="#81BA45"/>
<path d="M139.699 39.3154C141.026 39.3154 142.155 39.783 143.09 40.7183C144.038 41.6535 144.51 42.7825 144.51 44.1095C144.51 45.6093 143.971 46.8984 142.888 47.981C142.778 48.0906 142.753 48.1243 142.816 48.0737C142.841 48.0864 142.947 48.1917 143.128 48.3855C144.198 49.4555 144.733 50.7404 144.733 52.2359C144.733 53.5629 144.261 54.6919 143.313 55.6272C142.378 56.5624 141.253 57.03 139.939 57.03H132.899C132.04 57.03 131.303 56.7309 130.688 56.1285C130.073 55.5134 129.765 54.7762 129.765 53.9168V42.4329C129.765 41.5735 130.073 40.8404 130.688 40.238C131.303 39.623 132.04 39.3154 132.899 39.3154H139.699ZM132.899 42.1169C132.803 42.1169 132.722 42.1464 132.659 42.2096C132.596 42.2728 132.567 42.3444 132.567 42.4286V46.7593H139.016C139.754 46.7593 140.381 46.4939 140.895 45.9674C141.422 45.4534 141.687 44.8299 141.687 44.1053C141.687 43.5661 141.489 43.0985 141.097 42.7025C140.718 42.3107 140.251 42.1127 139.695 42.1127H132.895L132.899 42.1169ZM132.567 49.5819V53.9126C132.567 53.9884 132.596 54.0558 132.659 54.1148C132.722 54.1864 132.798 54.2243 132.899 54.2243H139.939C140.478 54.2243 140.946 54.0263 141.342 53.6345C141.721 53.2428 141.915 52.7751 141.915 52.2317C141.915 51.4945 141.658 50.8668 141.14 50.3528C140.613 49.8389 139.985 49.5777 139.261 49.5777H132.571L132.567 49.5819Z" fill="#81BA45"/>
<path d="M158.942 42.5046C158.93 42.8753 158.778 43.1871 158.483 43.444C158.214 43.701 157.881 43.819 157.489 43.7937C157.118 43.7811 156.807 43.6336 156.55 43.3514C156.217 42.9933 155.741 42.7026 155.113 42.4667C154.426 42.2223 153.643 42.0917 152.771 42.0791C151.515 42.0791 150.471 42.3361 149.637 42.8543C148.899 43.2966 148.533 43.8737 148.533 44.5857L148.276 44.3456L148.533 44.6025C148.533 45.4367 148.95 46.0138 149.788 46.334C150.34 46.532 151.368 46.6836 152.868 46.7932C155.143 46.9406 156.71 47.2229 157.569 47.6399C159.056 48.3772 159.798 49.7337 159.798 51.7137C159.798 53.3482 159.065 54.6584 157.603 55.6399C156.276 56.5499 154.629 57.0091 152.661 57.0217C151.115 57.0217 149.729 56.7352 148.516 56.1539C147.202 55.5135 146.304 54.6289 145.824 53.4999C145.677 53.1418 145.677 52.7879 145.824 52.4298C145.971 52.0844 146.216 51.84 146.561 51.6926C146.919 51.5451 147.273 51.5451 147.631 51.6926C147.977 51.84 148.221 52.0844 148.368 52.4298C148.579 52.9227 149.026 53.3314 149.712 53.6642C150.534 54.0559 151.52 54.2539 152.661 54.2539C154.064 54.2539 155.197 53.9591 156.069 53.3693C156.71 52.9269 157.026 52.3751 157.026 51.7094C157.026 50.888 156.609 50.3192 155.774 50.0117C155.223 49.8011 154.195 49.641 152.695 49.5315C150.42 49.384 148.849 49.1018 147.977 48.6847C146.49 47.9475 145.748 46.5825 145.748 44.5941V44.5773C145.773 42.8332 146.591 41.4683 148.2 40.4867C149.476 39.6989 151.001 39.3071 152.771 39.3071C153.976 39.3071 155.075 39.4925 156.069 39.859C157.114 40.2381 157.957 40.7858 158.593 41.4978C158.85 41.7674 158.968 42.1002 158.942 42.492V42.5046Z" fill="#81BA45"/>
</svg>
